<?xml version="1.0" standalone="no"?><!DOCTYPE svg PUBLIC "-//W3C//DTD SVG 1.1//EN" "http://www.w3.org/Graphics/SVG/1.1/DTD/svg11.dtd"><svg t="1765645160442" class="icon" viewBox="0 0 1024 1024" version="1.1" xmlns="http://www.w3.org/2000/svg" p-id="6456" xmlns:xlink="http://www.w3.org/1999/xlink" width="200" height="200"><path d="M867.328 109.056H156.672c-42.496 0-76.8 34.304-76.8 76.8v652.8c0 42.496 34.304 76.8 76.8 76.8h710.144c42.496 0 76.8-34.304 76.8-76.8v-652.8c0.512-42.496-34.304-76.8-76.288-76.8zM819.2 204.8c15.872 0.512 28.672 13.824 28.16 29.696-0.512 15.36-12.8 27.648-28.16 28.16-15.872 0-28.672-12.8-28.672-28.672 0-16.384 12.8-29.184 28.672-29.184z m-115.2 0c15.872 0.512 28.672 13.824 28.16 29.696-0.512 15.36-12.8 27.648-28.16 28.16-15.872 0-28.672-13.312-28.16-29.184 0-15.872 12.288-28.16 28.16-28.672z m-115.2 0c15.872 0 28.672 13.312 28.16 29.184 0 15.36-12.8 28.16-28.16 28.16-15.872 0-28.672-12.8-28.672-28.672s12.8-28.672 28.672-28.672z m297.472 594.944c0 42.496-15.36 57.344-57.856 57.344H195.072c-42.496 0-57.344-15.36-57.344-57.344V320h748.544v479.744z m-307.2-57.344h192c10.752 0 18.944-8.704 18.944-18.944v-18.944c0-10.752-8.704-19.456-18.944-19.456h-192c-10.752 0-19.456 8.704-19.456 18.944v18.944c0.512 10.752 8.704 19.456 19.456 19.456z" p-id="6457" fill="#ffffff"></path><path d="M594.944 384.512l-20.992-20.992c-1.024-1.024-1.536-1.024-3.072-1.024-1.024 0-2.048 0.512-3.072 1.024l-37.888 37.888c-16.896-11.264-35.84-16.896-55.296-16.896-25.088 0-50.688 9.728-70.144 29.184l-50.176 50.176c-1.536 1.536-1.536 4.096 0 5.632L488.96 604.16c1.024 1.024 1.536 1.024 3.072 1.024 1.024 0 2.048-0.512 3.072-1.024l50.176-50.176c34.304-34.304 37.888-87.04 11.776-125.44l37.888-37.888c1.536-2.048 1.536-4.608 0-6.144zM427.52 581.632c-1.536-1.536-4.096-1.536-5.632 0L389.12 614.4l-44.544-44.544 32.768-32.768c1.536-1.536 1.536-4.096 0-5.632l-17.92-17.92c-1.536-1.536-4.096-1.536-5.632 0l-32.768 32.768L299.52 524.8c-1.024-1.024-1.536-1.024-3.072-1.024-1.024 0-2.048 0.512-3.072 1.024L243.2 574.976c-34.304 34.304-37.888 87.04-11.776 125.44l-37.888 37.888c-1.536 1.536-1.536 4.096 0 5.632l20.992 20.992c1.024 1.024 1.536 1.024 3.072 1.024s2.048-0.512 3.072-1.024l37.888-37.888c16.896 11.264 35.84 16.896 55.296 16.896 25.088 0 50.688-9.728 70.144-29.184l50.176-50.176c1.536-1.536 1.536-4.096 0-5.632l-21.504-21.504 32.768-32.768c1.536-1.536 1.536-4.096 0-5.632l-17.92-17.408z" p-id="6458" fill="#ffffff"></path></svg>