<?xml version="1.0" standalone="no"?><!DOCTYPE svg PUBLIC "-//W3C//DTD SVG 1.1//EN" "http://www.w3.org/Graphics/SVG/1.1/DTD/svg11.dtd"><svg t="1768787344513" class="icon" viewBox="0 0 1024 1024" version="1.1" xmlns="http://www.w3.org/2000/svg" p-id="1605" xmlns:xlink="http://www.w3.org/1999/xlink" width="200" height="200"><path d="M974.570433 37.052424c-49.382156-49.382156-129.430567-49.382156-178.812723 0L435.350169 397.396735c83.494413 29.749429 149.189753 95.476383 178.812723 178.939182l360.40754-360.470769C1023.984203 166.482992 1023.984203 86.43458 974.570433 37.052424zM505.724484 674.404706c0-93.105281-75.590739-168.569562-168.69602-168.569562s-168.569562 75.464281-168.569562 168.569562l0.126459 0.126459C168.458902 799.251142 100.676992 908.068927 0.015799 966.334813l0.505835 0.632294C50.030249 995.357104 107.347693 1011.670288 168.58536 1011.670288 354.827537 1011.670288 505.850942 860.646883 505.850942 674.404706L505.724484 674.404706z" fill="#ffffff" p-id="1606"></path></svg>