<?xml version="1.0" standalone="no"?><!DOCTYPE svg PUBLIC "-//W3C//DTD SVG 1.1//EN" "http://www.w3.org/Graphics/SVG/1.1/DTD/svg11.dtd"><svg t="1762842572923" class="icon" viewBox="0 0 1029 1024" version="1.1" xmlns="http://www.w3.org/2000/svg" p-id="8346" xmlns:xlink="http://www.w3.org/1999/xlink" width="200.9765625" height="200"><path d="M869.142857 984.114286H160.571429c-88 0-160-65.6-160-145.771429V192.8C0.571429 112.628571 72.571429 47.028571 160.571429 47.028571h708.571428c88 0 160 65.6 160 145.771429v645.542857c0 80.171429-72 145.771429-160 145.771429z m86.342857-184.114286c0-187.657143-0.057143-375.314286-0.057143-562.914286-293.714286-0.8-587.428571-1.657143-881.142857-2.457143-0.514286 188.457143-1.028571 376.914286-1.485714 565.428572 0 50.971429 56.228571 92.628571 124.971429 92.628571h632.742857c68.742857-0.114286 124.971429-41.828571 124.971428-92.685714z" fill="#ffffff" p-id="8347"></path><path d="M425.657143 452.342857C331.6 504.285714 237.485714 556.171429 143.428571 608.171429V516.114286c43.771429-23.6 87.542857-47.2 131.314286-70.857143L139.485714 370.171429V288C234.857143 342.8 330.285714 397.542857 425.657143 452.342857z m372.514286 76.685714H427.085714v77.142858h371.028572v-77.142858h0.057143z" p-id="8348" fill="#ffffff"></path></svg>