<?xml version="1.0" standalone="no"?><!DOCTYPE svg PUBLIC "-//W3C//DTD SVG 1.1//EN" "http://www.w3.org/Graphics/SVG/1.1/DTD/svg11.dtd"><svg t="1762484820275" class="icon" viewBox="0 0 1228 1024" version="1.1" xmlns="http://www.w3.org/2000/svg" p-id="7482" xmlns:xlink="http://www.w3.org/1999/xlink" width="239.84375" height="200"><path d="M1053.151352 1023.984128H175.610556A173.306627 173.306627 0 0 1 0 853.339818V170.660182A173.306627 173.306627 0 0 1 175.610556 0.015872h877.540796A173.306627 173.306627 0 0 1 1228.761908 170.660182v682.679636A173.306627 173.306627 0 0 1 1053.151352 1023.984128zM351.221112 256.007936H87.549286v170.64431h263.671826V256.007936z m0 255.992064H87.549286v170.64431h263.671826V512z m0 255.992064H87.549286v85.347754a86.730111 86.730111 0 0 0 88.06127 85.296556h175.610556V767.992064z m87.549286 170.64431h351.221112V767.992064H438.770398v170.64431z m0-255.992064h351.221112V512H438.770398v170.64431z m0-255.992064h351.221112V256.007936H438.770398v170.64431zM1141.212622 256.007936h-263.671826v170.64431h263.671826V256.007936z m0 255.992064h-263.671826v170.64431h263.671826V512z m0 255.992064h-263.671826v170.64431h175.610556a86.730111 86.730111 0 0 0 88.06127-85.296556V767.992064z" fill="#ffffff" p-id="7483"></path></svg>