<?xml version="1.0" standalone="no"?><!DOCTYPE svg PUBLIC "-//W3C//DTD SVG 1.1//EN" "http://www.w3.org/Graphics/SVG/1.1/DTD/svg11.dtd"><svg t="1777300449679" class="icon" viewBox="0 0 1024 1024" version="1.1" xmlns="http://www.w3.org/2000/svg" p-id="6159" xmlns:xlink="http://www.w3.org/1999/xlink" width="200" height="200"><path d="M903.314286 842.171429c0.228571-0.342857 0.571429-0.685714 0.8-1.028572C978.971429 752.114286 1024 637.371429 1024 512s-45.028571-240.114286-119.771429-329.142857c-0.228571-0.342857-0.571429-0.571429-0.8-0.914286-1.257143-1.485714-2.4-2.857143-3.657142-4.228571-0.457143-0.571429-0.914286-1.028571-1.371429-1.6l-4.685714-5.371429-0.114286-0.114286c-1.714286-1.942857-3.542857-3.885714-5.257143-5.828571l-0.114286-0.114286c-3.657143-3.885714-7.314286-7.771429-11.085714-11.542857l-0.114286-0.114286-5.485714-5.485714-0.342857-0.342857c-1.714286-1.714286-3.428571-3.314286-5.142857-4.914286-0.571429-0.571429-1.142857-1.142857-1.828572-1.714285-1.142857-1.142857-2.285714-2.171429-3.428571-3.2-0.342857-0.342857-0.8-0.685714-1.142857-1.142858C768.457143 51.657143 646.285714 0 512 0s-256.457143 51.657143-347.771429 136.228571c-0.342857 0.342857-0.8 0.685714-1.142857 1.142858-1.142857 1.028571-2.285714 2.171429-3.428571 3.314285-0.571429 0.571429-1.142857 1.142857-1.828572 1.714286-1.714286 1.6-3.428571 3.314286-5.142857 4.914286l-0.342857 0.342857-5.485714 5.485714-0.114286 0.114286c-3.771429 3.771429-7.428571 7.657143-11.085714 11.542857l-0.114286 0.114286c-1.828571 1.942857-3.542857 3.885714-5.257143 5.828571l-0.114285 0.114286c-1.6 1.714286-3.2 3.542857-4.685715 5.371428-0.457143 0.571429-0.914286 1.028571-1.371428 1.6-1.257143 1.371429-2.4 2.857143-3.657143 4.228572-0.228571 0.342857-0.571429 0.571429-0.8 0.914286C45.028571 271.885714 0 386.628571 0 512s45.028571 240.114286 119.771429 329.142857c0.228571 0.342857 0.571429 0.685714 0.8 1.028572l3.542857 4.228571c0.457143 0.571429 0.914286 1.028571 1.371428 1.6l4.685715 5.371429c0 0.114286 0.114286 0.114286 0.114285 0.228571 1.714286 1.942857 3.428571 3.885714 5.257143 5.714286l0.114286 0.114285c3.657143 3.885714 7.314286 7.771429 10.971428 11.542858l0.114286 0.114285c1.828571 1.828571 3.542857 3.657143 5.371429 5.371429l0.342857 0.342857c3.771429 3.771429 7.657143 7.428571 11.542857 10.971429 91.542857 84.571429 213.714286 136.228571 348 136.228571s256.457143-51.657143 347.771429-136.228571a342.857143 342.857143 0 0 0 11.428571-10.971429l0.342857-0.342857c1.828571-1.828571 3.657143-3.542857 5.371429-5.371429l0.114285-0.114285c3.771429-3.771429 7.428571-7.657143 10.971429-11.542858l0.114286-0.114285c1.714286-1.942857 3.542857-3.771429 5.257143-5.714286 0-0.114286 0.114286-0.114286 0.114285-0.228571 1.6-1.714286 3.2-3.542857 4.685715-5.371429 0.457143-0.571429 0.914286-1.028571 1.371428-1.6a113.142857 113.142857 0 0 0 3.771429-4.228571z m4.685714-162.971429c-15.771429 37.257143-36.571429 71.771429-61.942857 103.085714a507.508571 507.508571 0 0 0-93.142857-63.885714c13.257143-53.6 21.485714-112.457143 23.657143-174.4H940.571429c-3.428571 46.742857-14.4 92.114286-32.571429 135.2zM940.571429 480H776.571429c-2.171429-61.942857-10.4-120.8-23.657143-174.4 33.485714-17.828571 64.685714-39.314286 93.142857-63.885714A427.268571 427.268571 0 0 1 940.571429 480zM679.2 116c45.371429 19.2 86.628571 45.714286 122.971429 79.085714a451.108571 451.108571 0 0 1-67.885715 47.771429c-17.942857-51.428571-40.914286-96.114286-67.657143-131.885714 4.228571 1.6 8.457143 3.314286 12.571429 5.028571z m-103.542857 800.685714c-10.514286 8.228571-21.028571 14.514286-31.657143 18.742857V723.428571a444.685714 444.685714 0 0 1 132.228571 29.942858c-9.485714 28.114286-20.457143 54.057143-33.142857 77.485714-19.885714 37.028571-43.2 66.628571-67.428571 85.828571z m67.428571-723.542857c12.571429 23.542857 23.657143 49.485714 33.142857 77.485714A444.685714 444.685714 0 0 1 544 300.571429V88.685714c10.514286 4.228571 21.142857 10.4 31.657143 18.742857 24.228571 19.085714 47.542857 48.685714 67.428571 85.714286zM544 659.314286V544h168.571429c-1.828571 50.514286-8.114286 99.542857-18.628572 146.057143l-0.342857 1.371428A508.594286 508.594286 0 0 0 544 659.314286z m0-179.314286V364.685714c52.342857-3.2 102.628571-14.285714 149.6-32.114285l0.342857 1.371428c10.514286 46.514286 16.8 95.428571 18.628572 146.057143H544z m-64 64v115.314286c-52.342857 3.2-102.628571 14.285714-149.6 32.114285l-0.342857-1.371428c-10.514286-46.514286-16.8-95.428571-18.628572-146.057143H480z m-168.571429-64c1.828571-50.514286 8.114286-99.542857 18.628572-146.057143l0.342857-1.371428c46.971429 17.828571 97.142857 28.914286 149.6 32.114285V480H311.428571zM480 723.428571v211.885715c-10.514286-4.228571-21.142857-10.4-31.657143-18.742857-24.228571-19.085714-47.657143-48.8-67.542857-85.828572-12.571429-23.542857-23.657143-49.485714-33.142857-77.485714 42.514286-16.685714 86.742857-26.628571 132.342857-29.828572z m0-422.857142a444.685714 444.685714 0 0 1-132.228571-29.942858c9.485714-28.114286 20.457143-54.057143 33.142857-77.485714 19.885714-37.028571 43.2-66.742857 67.542857-85.828571 10.514286-8.228571 21.028571-14.514286 31.657143-18.742857V300.571429zM344.8 116c4.228571-1.714286 8.342857-3.428571 12.571429-5.028571-26.742857 35.771429-49.714286 80.457143-67.657143 131.885714-24-13.714286-46.742857-29.714286-67.885715-47.771429 36.342857-33.371429 77.6-59.885714 122.971429-79.085714zM116 344.8c15.771429-37.257143 36.571429-71.771429 61.942857-103.085714 28.457143 24.571429 59.657143 46.057143 93.142857 63.885714-13.257143 53.6-21.485714 112.457143-23.657143 174.4H83.428571c3.428571-46.742857 14.4-92.114286 32.571429-135.2zM83.428571 544h164c2.171429 61.942857 10.4 120.8 23.657143 174.4a507.508571 507.508571 0 0 0-93.142857 63.885714A427.268571 427.268571 0 0 1 83.428571 544z m261.371429 364c-45.371429-19.2-86.628571-45.714286-122.971429-79.085714 21.142857-18.057143 43.885714-33.942857 67.885715-47.771429 17.942857 51.428571 40.914286 96.114286 67.657143 131.885714-4.228571-1.6-8.457143-3.314286-12.571429-5.028571z m334.4 0c-4.228571 1.714286-8.342857 3.428571-12.571429 5.028571 26.742857-35.771429 49.714286-80.457143 67.657143-131.885714 24 13.714286 46.742857 29.714286 67.885715 47.771429a427.211429 427.211429 0 0 1-122.971429 79.085714z" p-id="6160" fill="#ffffff"></path></svg>