<?xml version="1.0" standalone="no"?><!DOCTYPE svg PUBLIC "-//W3C//DTD SVG 1.1//EN" "http://www.w3.org/Graphics/SVG/1.1/DTD/svg11.dtd"><svg t="1764297683319" class="icon" viewBox="0 0 1024 1024" version="1.1" xmlns="http://www.w3.org/2000/svg" p-id="5297" xmlns:xlink="http://www.w3.org/1999/xlink" width="200" height="200"><path d="M345.315 493.033c10.24-1.71 20.48-2.84 30.72-2.84H644.55c11.95 0 23.32-1.71 34.7-4.55 51.198-14.22 88.748-59.71 88.748-116.008V137.048c0-65.969-56.32-116.008-123.448-126.808C601.87 3.41 539.872 0 497.773 0s-82.49 3.98-118.329 10.24c-104.678 18.2-123.448 56.299-123.448 126.808v76.199h255.997v42.65H172.937C77.94 255.896 0.57 369.634 0 509.522v2.27c0 25.59 2.28 50.039 7.4 72.788C28.45 690.35 94.439 767.69 172.947 767.69h40.39V645.42c0-71.65 53.48-138.188 131.978-152.398z m27.31-325.275c-25.6 0-46.65-21.04-46.08-46.63 0-25.59 20.48-46.63 46.08-46.63s46.649 21.04 46.649 46.63c-0.57 26.16-21.05 46.63-46.65 46.63z" p-id="5298" fill="#ffffff"></path><path d="M1013.175 422.524c-24.46-97.239-87.608-166.618-162.127-166.618h-40.39v108.619c0 90.418-59.159 155.817-131.978 167.187a145.47 145.47 0 0 1-22.19 1.71H379.444c-11.95 0-23.32 1.71-34.699 4.55-51.2 13.65-88.749 55.73-88.749 110.889v232.586c0 65.97 66.56 105.199 131.978 123.968 77.94 22.75 163.268 26.73 257.137 0 62.009-17.63 122.878-53.459 122.878-123.968v-70.519H511.993v-43.22h339.055c67.129 0 125.718-56.868 154.167-139.887 11.95-34.69 18.77-73.93 18.77-116.008 0-31.28-3.98-61.42-10.81-89.28zM650.231 849.588c25.6 0 46.079 21.04 46.079 46.629s-21.05 46.63-46.08 46.63-46.649-21.04-46.649-46.63c0.57-25.59 21.05-46.63 46.65-46.63z" p-id="5299" fill="#ffffff"></path></svg>