<?xml version="1.0" standalone="no"?><!DOCTYPE svg PUBLIC "-//W3C//DTD SVG 1.1//EN" "http://www.w3.org/Graphics/SVG/1.1/DTD/svg11.dtd"><svg t="1762739522637" class="icon" viewBox="0 0 1024 1024" version="1.1" xmlns="http://www.w3.org/2000/svg" p-id="14824" xmlns:xlink="http://www.w3.org/1999/xlink" width="200" height="200"><path d="M149.376 149.312h469.312v725.312H149.376V149.312z m-32-64a32 32 0 0 0-32 32v789.312a32 32 0 0 0 32 32h533.312a32 32 0 0 0 32-32V117.312a32 32 0 0 0-32-32H117.376z m618.624 768V170.624a64 64 0 0 1 64 64v554.688a64 64 0 0 1-64 64zM853.376 256v512a64 64 0 0 0 64-64V320a64 64 0 0 0-64-64z m-298.688-32a64 64 0 0 1-64 64H277.376a64 64 0 0 1-64-64h341.312z m-192 234.624a64 64 0 0 0 64-64H213.376a64 64 0 0 0 64 64h85.312z" fill="#ffffff" p-id="14825"></path></svg>