<?xml version="1.0" standalone="no"?><!DOCTYPE svg PUBLIC "-//W3C//DTD SVG 1.1//EN" "http://www.w3.org/Graphics/SVG/1.1/DTD/svg11.dtd"><svg t="1761481818866" class="icon" viewBox="0 0 1024 1024" version="1.1" xmlns="http://www.w3.org/2000/svg" p-id="6942" xmlns:xlink="http://www.w3.org/1999/xlink" width="200" height="200"><path d="M512 0a511.999716 511.999716 0 1 1-287.573174 935.764813l-7.96444-117.361712 123.562598-3.697776a346.225585 346.225585 0 1 0 131.754594-644.550753l80.099511-86.186619L455.964476 3.015109C474.339576 1.023999 493.056011 0 512 0zM88.746902 800.426222l96.199057 14.051548 3.470221 94.435503a514.844158 514.844158 0 0 1-99.669278-108.487051z m206.165219-16.497769h-78.506623l3.47022-83.62662c20.366211 31.800871 45.738641 60.074633 75.093291 83.62662z m-183.409676-128.341262l78.16529 40.789311-5.00622 84.65062-113.208826-19.45599 40.049756-105.983941z m-106.723497-72.248848l76.17418 55.978635-35.271091 84.764398a508.358829 508.358829 0 0 1-40.903089-140.686145z m192.113672 74.751958l-68.607962-33.905759 40.391088-63.544853c4.664886 34.303981 14.335992 67.071963 28.216874 97.450612z m-107.747496-187.733229l52.792859 67.470185-47.331529 67.470185L14.734498 544.710808l74.467515-74.353736zM24.12116 356.010469l44.430197 80.6684L0.057173 501.589055l0.056889-4.664887a510.861938 510.861938 0 0 1 24.007098-140.970588z m141.823921 143.928809l-43.918198-53.418637 59.960856-37.774201a345.315364 345.315364 0 0 0-16.042658 91.192838z m-10.239994-220.614989l16.668435 86.584841-70.20085 45.112864L46.706036 307.768718l108.942162-28.444429z m54.897747 64.170631l-11.320882-73.898625 69.68885-2.161777a347.590918 347.590918 0 0 0-58.367968 76.060402zM152.803755 147.057696l0.056889 85.162619-81.351066 18.488879a514.161492 514.161492 0 0 1 81.294177-103.651498z m44.259531-19.9111l96.540391 19.342212-17.635546 75.775957-78.904845 2.844443V127.203485z m143.473698 34.702203l59.164412 24.632875a344.917142 344.917142 0 0 0-76.970624 37.603535l17.806212-62.179521zM400.042729 31.630205l73.841737 55.068414-49.095084 57.969745-66.616852-29.752872 41.870199-83.228398zM346.567203 27.306651l-34.417759 72.931516-79.871955-17.180435A510.008606 510.008606 0 0 1 346.567203 27.306651z" fill="#3FAF2C" p-id="6943"></path></svg>