<?xml version="1.0" standalone="no"?><!DOCTYPE svg PUBLIC "-//W3C//DTD SVG 1.1//EN" "http://www.w3.org/Graphics/SVG/1.1/DTD/svg11.dtd"><svg t="1767930060737" class="icon" viewBox="0 0 1024 1024" version="1.1" xmlns="http://www.w3.org/2000/svg" p-id="4698" xmlns:xlink="http://www.w3.org/1999/xlink" width="200" height="200"><path d="M938.666667 469.248a64 64 0 0 1 63.701333 57.856l0.298667 6.144v384c0 58.112-47.274667 102.954667-104.234667 106.453333l-7.168 0.213334H132.693333c-57.685333 0-107.264-42.538667-111.146666-99.456L21.333333 917.248v-384a64 64 0 0 1 127.701334-6.144l0.298666 6.144v362.666667h725.333334v-362.666667a64 64 0 0 1 57.856-63.701333l6.144-0.298667zM509.013333 0l6.912 0.042667 7.978667 0.981333 4.48 1.024 5.546667 1.706667 4.352 1.792 5.205333 2.645333 4.864 2.986667 6.186667 4.906666 3.541333 3.413334 2.645333 2.986666 236.245334 300.586667a64 64 0 0 1-96.341334 84.010667l-4.266666-4.949334L576 248.96v454.954667a64 64 0 0 1-127.701333 6.186666L448 703.914667V248.917333L327.68 402.133333a64 64 0 0 1-84.522667 14.592l-5.376-3.84a64 64 0 0 1-14.549333-84.48l3.797333-5.333333L463.274667 22.442667l5.376-5.546667 4.437333-3.797333 5.717333-3.882667 6.912-3.669333 6.954667-2.645334 6.144-1.621333 7.125333-1.066667L509.013333 0z" fill="#ffffff" p-id="4699"></path></svg>