<?xml version="1.0" standalone="no"?><!DOCTYPE svg PUBLIC "-//W3C//DTD SVG 1.1//EN" "http://www.w3.org/Graphics/SVG/1.1/DTD/svg11.dtd"><svg t="1769348545265" class="icon" viewBox="0 0 1024 1024" version="1.1" xmlns="http://www.w3.org/2000/svg" p-id="10454" xmlns:xlink="http://www.w3.org/1999/xlink" width="200" height="200"><path d="M384 136m32 0l192 0q32 0 32 32l0 688q0 32-32 32l-192 0q-32 0-32-32l0-688q0-32 32-32Z" fill="#ffffff" p-id="10455"></path><path d="M80 136m32 0l192 0q32 0 32 32l0 688q0 32-32 32l-192 0q-32 0-32-32l0-688q0-32 32-32Z" fill="#ffffff" p-id="10456"></path><path d="M688 136m32 0l192 0q32 0 32 32l0 688q0 32-32 32l-192 0q-32 0-32-32l0-688q0-32 32-32Z" fill="#ffffff" p-id="10457"></path></svg>