<?xml version="1.0" standalone="no"?><!DOCTYPE svg PUBLIC "-//W3C//DTD SVG 1.1//EN" "http://www.w3.org/Graphics/SVG/1.1/DTD/svg11.dtd"><svg t="1775025269890" class="icon" viewBox="0 0 1024 1024" version="1.1" xmlns="http://www.w3.org/2000/svg" p-id="12998" xmlns:xlink="http://www.w3.org/1999/xlink" width="200" height="200"><path d="M748.8 153.6l256 256c25.6 25.6 25.6 64 0 89.6-25.6 25.6-64 25.6-89.6 0l-166.4-166.4V960c0 32-25.6 64-64 64h-12.8c-32 0-64-25.6-64-64V160c0-57.6 70.4-83.2 108.8-44.8l32 38.4zM275.2 876.8l-256-256c-25.6-25.6-25.6-64 0-89.6 25.6-25.6 64-25.6 89.6 0L275.2 704V64c0-32 25.6-64 64-64h12.8c32 0 64 25.6 64 64v806.4c0 57.6-70.4 83.2-108.8 44.8l-32-38.4z" fill="#ffffff" p-id="12999"></path></svg>