<?xml version="1.0" standalone="no"?><!DOCTYPE svg PUBLIC "-//W3C//DTD SVG 1.1//EN" "http://www.w3.org/Graphics/SVG/1.1/DTD/svg11.dtd"><svg t="1779105159112" class="icon" viewBox="0 0 1024 1024" version="1.1" xmlns="http://www.w3.org/2000/svg" p-id="5475" xmlns:xlink="http://www.w3.org/1999/xlink" width="200" height="200"><path d="M547.054931 192.580254a66.457596 66.457596 0 1 1-0.034133 132.881059 66.457596 66.457596 0 0 1 0.034133-132.881059z m-283.306649 144.725325a67.345062 67.345062 0 1 0 134.690125 0.034133 67.345062 67.345062 0 0 0-134.724258-0.034133zM725.33332 298.666648a65.740796 65.740796 0 1 1-0.068267 131.481591 65.740796 65.740796 0 0 1 0.068267-131.481591zM260.642149 477.08157a67.345062 67.345062 0 1 1-0.068266 134.724258 67.345062 67.345062 0 0 1 0.068266-134.724258z" p-id="5476" fill="#ffffff"></path><path d="M520.567466 984.746604q-4.744533-0.136533-9.454933-0.6144h-0.512q-96.017061-0.170667-183.637321-37.375998-84.650661-35.976531-149.845324-101.410126-65.262929-65.467729-100.966394-150.254924-37.000531-87.790928-36.863997-183.876255 0.068267-96.085327 37.205331-183.807988Q112.401092 242.687985 177.766421 177.390922q65.365329-65.331196 150.050124-101.13706 87.722661-37.034664 183.705588-37.000531 96.017061 0.034133 183.637322 37.205331 84.684795 35.839998 149.981857 101.23946 65.297063 65.399463 101.102927 150.152524 37.068798 87.722661 37.068798 183.842121V511.999967l0.034133 0.341334q6.929066 55.22773-18.773332 104.584526-25.702398 49.220264-74.751995 75.093329-83.899728 32.324265-173.567989 26.009598h-0.375467q-58.572796 0-82.875728 3.106133-41.574397 5.358933-56.86613 23.347199-20.753065 24.405332-17.988265 54.954663 1.9456 21.162665 19.455998 62.532263l0.2048 0.375467 0.238934 0.375466q13.482666 20.991999 14.950399 45.909331 1.467733 24.575998-9.1136 46.762663l-0.546133 0.580267q-24.849065 28.671998-62.771196 28.774398zM146.227223 355.566911q-30.617598 74.308262-29.593598 155.374923v0.034134q0.1024 79.155195 30.310398 151.620257 29.218131 70.041596 82.500262 124.518392 53.28213 54.442663 122.675192 85.128528 71.748262 31.743998 150.801057 33.518931l7.611733 0.170666-4.778667-12.629332-1.194666-2.56-0.136534-0.238933q-27.306665-46.591997-23.790931-100.454394 3.4816-53.828263 36.454397-96.460794 30.378665-35.498664 87.176528-46.83093 34.474664-6.894933 110.489593-7.031466h1.1264q55.364263 0 81.988261-2.6624 37.683198-3.754666 59.52853-15.223466 48.332797-25.326932 48.332797-110.284793 1.160533-80.998395-29.354665-155.374923-29.422931-71.782395-84.070394-127.317326-54.681597-55.53493-125.951992-86.084261-73.830395-31.641598-154.828791-31.709864-81.032528-0.068267-154.93119 31.470931-71.338662 30.412798-126.054392 85.845328-54.749863 55.466663-84.309328 127.180792z" p-id="5477" fill="#ffffff"></path></svg>