<?xml version="1.0" standalone="no"?><!DOCTYPE svg PUBLIC "-//W3C//DTD SVG 1.1//EN" "http://www.w3.org/Graphics/SVG/1.1/DTD/svg11.dtd"><svg t="1766407281656" class="icon" viewBox="0 0 1024 1024" version="1.1" xmlns="http://www.w3.org/2000/svg" p-id="7589" xmlns:xlink="http://www.w3.org/1999/xlink" width="200" height="200"><path d="M844.668734 0H179.331266C122.736585 0 76.940889 45.795696 76.940889 102.390377v819.023025c0 56.49469 45.795696 102.390377 102.390377 102.390376h255.975942c38.19641-0.199981 73.09313-21.59797 90.591486-55.494784l4.599567-5.399492c-78.692604-117.388967-47.395546-276.374025 69.993422-355.06663 74.69298-50.095292 170.084015-57.294615 251.476365-19.098205 22.497886-1.399868 43.795884-10.399023 60.394324-25.597594 22.097923-19.398177 34.79673-47.395546 34.79673-76.792783v-383.963913C947.059111 45.795696 901.263415 0 844.668734 0zM524.798797 588.644677H320.018043c-21.198008 0-38.396391-17.198384-38.396391-38.396392s17.198384-38.396391 38.396391-38.396391h204.780754c21.198008 0 38.396391 17.198384 38.396391 38.396391s-17.198384 38.396391-38.396391 38.396392z m153.585565-230.378348H320.018043c-21.198008 0-38.396391-17.198384-38.396391-38.396392s17.198384-38.396391 38.396391-38.396391h358.266329c21.198008 0 38.396391 17.198384 38.396391 38.396391s-17.098393 38.396391-38.296401 38.396392z" fill="#ffffff" p-id="7590"></path><path d="M815.271497 627.840993c-105.690067-40.296213-223.978949 12.698807-264.275162 118.388873-40.296213 105.690067 12.698807 223.978949 118.388873 264.275162s223.978949-12.698807 264.275163-118.388873c8.899164-23.29781 13.498731-48.09548 13.39874-73.09313 0.499953-85.092003-52.095104-161.384832-131.787614-191.182032z m16.59844 216.679635h-63.993985v63.993986c0 14.098675-11.498919 25.597594-25.597595 25.597594-14.098675 0-25.597594-11.498919-25.597594-25.597594v-63.993986h-63.993985c-14.098675 0-25.597594-11.498919-25.597595-25.597594 0-14.098675 11.498919-25.597594 25.597595-25.597594h63.993985v-63.993986c0-14.098675 11.498919-25.597594 25.597594-25.597594 14.098675 0 25.597594 11.498919 25.597595 25.597594v63.993986h63.993985c14.098675 0 25.597594 11.498919 25.597594 25.597594 0 14.198666-11.398929 25.597594-25.597594 25.597594z" fill="#ffffff" p-id="7591"></path></svg>