<?xml version="1.0" standalone="no"?><!DOCTYPE svg PUBLIC "-//W3C//DTD SVG 1.1//EN" "http://www.w3.org/Graphics/SVG/1.1/DTD/svg11.dtd"><svg t="1770297901693" class="icon" viewBox="0 0 1024 1024" version="1.1" xmlns="http://www.w3.org/2000/svg" p-id="6226" xmlns:xlink="http://www.w3.org/1999/xlink" width="200" height="200"><path d="M868.420836 0H155.603058A159.288889 159.288889 0 0 0 0.011947 161.166222v701.724445a159.288889 159.288889 0 0 0 155.591111 161.166222h712.817778A159.288889 159.288889 0 0 0 1024.011947 862.890667V161.166222A156.046222 156.046222 0 0 0 868.420836 0z m80.327111 868.067556a80.725333 80.725333 0 0 1-80.327111 83.171555H155.603058a80.725333 80.725333 0 0 1-80.327111-83.171555V161.109333A80.725333 80.725333 0 0 1 155.603058 77.937778h712.817778a80.725333 80.725333 0 0 1 80.327111 83.171555zM376.67328 254.691556L266.251947 369.038222l-50.176-51.996444a32.654222 32.654222 0 0 0-50.176 0 35.384889 35.384889 0 0 0 0 51.996444l80.327111 83.171556a41.585778 41.585778 0 0 0 30.094222 10.410666c15.075556 0 15.075556-5.176889 30.094222-10.410666l135.509334-140.344889a35.441778 35.441778 0 0 0 0-51.996445c-30.094222-15.587556-50.176-15.587556-65.251556-5.176888z m461.824 62.577777H492.157724a36.408889 36.408889 0 0 0 0 72.760889h346.339556a32.312889 32.312889 0 0 0 35.100444-36.408889 34.929778 34.929778 0 0 0-35.157333-36.408889zM286.333724 551.139556a119.466667 119.466667 0 1 0 115.427556 119.466666 115.655111 115.655111 0 0 0-115.655111-119.637333z m0 155.932444a41.585778 41.585778 0 1 1 40.163556-41.585778 40.277333 40.277333 0 0 1-40.391111 41.415111z m552.163556-77.994667H492.157724a32.312889 32.312889 0 0 0-35.157333 36.408889 34.929778 34.929778 0 0 0 35.157333 36.408889h346.339556a32.312889 32.312889 0 0 0 35.100444-36.408889 34.929778 34.929778 0 0 0-35.157333-36.408889z" fill="#ffffff" p-id="6227"></path></svg>