<?xml version="1.0" standalone="no"?><!DOCTYPE svg PUBLIC "-//W3C//DTD SVG 1.1//EN" "http://www.w3.org/Graphics/SVG/1.1/DTD/svg11.dtd"><svg t="1767751134762" class="icon" viewBox="0 0 1024 1024" version="1.1" xmlns="http://www.w3.org/2000/svg" p-id="7614" xmlns:xlink="http://www.w3.org/1999/xlink" width="200" height="200"><path d="M872.768 335.808c60.8 0 113.664 48.192 118.784 106.176l0.448 9.216v425.344c0 58.88-49.792 110.08-109.696 115.072l-9.6 0.384H433.6c-60.8 0-113.664-48.256-118.784-106.24l-0.448-9.216V633.472c0-31.616 23.808-54.656 56.512-54.656 30.144 0 52.736 19.648 56.064 47.552l0.384 7.104v243.072c0 3.84 0.832 5.44 3.712 5.888l2.56 0.192h439.232c3.968 0 5.568-0.832 6.08-3.584l0.192-2.56V451.2c0-3.84-0.832-5.376-3.712-5.888l-2.56-0.192h-62.72c-32.704 0-56.512-23.04-56.512-54.656 0-29.248 20.288-51.072 49.088-54.272l7.424-0.384h62.72z m-446.08 32.512l5.76 4.928 269.824 261.312a52.48 52.48 0 0 1 0 76.864c-18.56 17.984-48.96 22.72-67.84 10.304l-5.312-4.224-276.096-267.328a52.48 52.48 0 0 1 0-76.928 56.64 56.64 0 0 1 67.328-8.96l6.272 4.032zM590.336 32c60.864 0 113.664 48.192 118.848 106.24l0.384 9.152v243.072c0 31.616-23.808 54.656-56.448 54.656-30.208 0-52.8-19.584-56.064-47.488L596.672 390.4V147.392c0-3.84-0.832-5.376-3.712-5.888l-2.56-0.128H151.168c-3.968 0-5.568 0.768-6.08 3.584l-0.192 2.432V572.8c0 3.84 0.896 5.44 3.712 5.888l2.56 0.192h62.72c32.768 0 56.512 23.04 56.512 54.656a53.248 53.248 0 0 1-49.088 54.336l-7.36 0.384h-62.72c-60.864 0-113.728-48.192-118.848-106.24L32 572.8V147.392c0-58.88 49.728-110.08 109.632-115.008L151.232 32h439.168z" fill="#ffffff" p-id="7615"></path></svg>