<?xml version="1.0" standalone="no"?><!DOCTYPE svg PUBLIC "-//W3C//DTD SVG 1.1//EN" "http://www.w3.org/Graphics/SVG/1.1/DTD/svg11.dtd"><svg t="1776654309243" class="icon" viewBox="0 0 1030 1024" version="1.1" xmlns="http://www.w3.org/2000/svg" p-id="1779" xmlns:xlink="http://www.w3.org/1999/xlink" width="201.171875" height="200"><path d="M448 512H76.8C38.4 512 6.4 486.4 6.4 448V70.4C6.4 32 38.4 0 76.8 0H448c38.4 0 70.4 32 70.4 70.4V448c0 38.4-32 64-70.4 64zM76.8 57.6c-6.4 0-12.8 6.4-12.8 12.8V448c0 6.4 6.4 12.8 12.8 12.8H448c6.4 0 12.8-6.4 12.8-12.8V70.4c0-6.4-6.4-12.8-12.8-12.8H76.8z" p-id="1780" fill="#ffffff"></path><path d="M396.8 288H128c-12.8 0-25.6-12.8-25.6-32 0-12.8 12.8-25.6 25.6-25.6h268.8c12.8 0 25.6 12.8 25.6 25.6 6.4 19.2-6.4 32-25.6 32zM774.4 288H505.6c-19.2 0-32-12.8-32-32 0-12.8 12.8-25.6 25.6-25.6H768c12.8 0 25.6 12.8 25.6 25.6 12.8 19.2 0 32-19.2 32z" p-id="1781" fill="#ffffff"></path><path d="M748.8 531.2V256c0-12.8 12.8-25.6 25.6-25.6s25.6 12.8 25.6 25.6v268.8c0 12.8-12.8 25.6-25.6 25.6-12.8 6.4-25.6-6.4-25.6-19.2zM236.8 396.8V121.6c0-12.8 12.8-25.6 25.6-25.6s25.6 12.8 25.6 25.6v268.8c0 12.8-12.8 25.6-25.6 25.6-12.8 6.4-25.6-6.4-25.6-19.2z" p-id="1782" fill="#ffffff"></path><path d="M960 1024H588.8c-38.4 0-70.4-32-70.4-70.4V582.4c0-38.4 32-70.4 70.4-70.4H960c38.4 0 70.4 32 70.4 70.4V960c0 38.4-32 64-70.4 64zM588.8 569.6c-6.4 0-12.8 6.4-12.8 12.8V960c0 6.4 6.4 12.8 12.8 12.8H960c6.4 0 12.8-6.4 12.8-12.8V582.4c0-6.4-6.4-12.8-12.8-12.8H588.8z" p-id="1783" fill="#ffffff"></path><path d="M908.8 800H640c-12.8 0-25.6-12.8-25.6-25.6s12.8-25.6 25.6-25.6h268.8c12.8 0 25.6 12.8 25.6 25.6 6.4 12.8-6.4 25.6-25.6 25.6z" p-id="1784" fill="#ffffff"></path><path d="M748.8 908.8V633.6c0-12.8 12.8-25.6 25.6-25.6s25.6 12.8 25.6 25.6v268.8c0 12.8-12.8 25.6-25.6 25.6-12.8 6.4-25.6-6.4-25.6-19.2z" p-id="1785" fill="#ffffff"></path></svg>