<?xml version="1.0" standalone="no"?><!DOCTYPE svg PUBLIC "-//W3C//DTD SVG 1.1//EN" "http://www.w3.org/Graphics/SVG/1.1/DTD/svg11.dtd"><svg t="1762739599422" class="icon" viewBox="0 0 1024 1024" version="1.1" xmlns="http://www.w3.org/2000/svg" p-id="18750" xmlns:xlink="http://www.w3.org/1999/xlink" width="200" height="200"><path d="M746.666667 106.666667c29.44 0 54.613333 10.410667 75.413333 31.232 19.456 19.456 29.824 42.666667 31.104 69.610666L853.333333 213.333333v357.184h-85.333333V533.333333H234.666667v277.333334c0 5.888 2.090667 10.922667 6.250666 15.082666a20.437333 20.437333 0 0 0 12.202667 6.08L256 832h362.666667v85.333333H256c-29.44 0-54.613333-10.410667-75.434667-31.253333-19.413333-19.413333-29.802667-42.624-31.082666-69.589333L149.333333 810.666667V213.333333c0-29.44 10.410667-54.613333 31.232-75.434666 19.456-19.413333 42.666667-29.802667 69.610667-31.082667L256 106.666667h490.666667z m64 512a149.333333 149.333333 0 1 1 0 298.666666 149.333333 149.333333 0 0 1 0-298.666666z m85.333333 128h-170.666667v42.666666h170.666667v-42.666666zM311.125333 330.666667h-48.789333l57.024 149.333333h50.517333l56-149.333333h-47.36l-33.429333 107.477333-33.962667-107.477333z m220.992 0h-50.858666l-56.746667 149.333333h47.68l7.274667-26.346667h53.12l7.424 26.346667H588.8l-56.682667-149.333333z m148.501334 0h-77.76v149.333333h46.869333v-57.109333h4.117333c4.266667 0 8.064 1.109333 11.392 3.306666 2.069333 1.365333 4.373333 4.117333 6.890667 8.213334l1.557333 2.624 24.917334 42.965333h52.693333l-22.506667-40.277333a60.16 60.16 0 0 0-6.506666-9.536c-3.264-4.181333-5.76-6.890667-7.488-8.170667-2.517333-1.92-6.570667-3.84-12.16-5.696 6.976-1.6 12.437333-3.626667 16.426666-6.037333 6.208-3.84 11.093333-8.853333 14.677334-15.04 3.562667-6.186667 5.333333-13.525333 5.333333-22.037334 0-9.728-2.325333-17.984-6.976-24.746666a35.242667 35.242667 0 0 0-18.474667-14.016c-7.594667-2.517333-18.581333-3.776-33.002666-3.776z m-174.442667 36.778666l16.661333 51.072h-33.28l16.618667-51.072z m164.010667-1.642666c8.512 0 14.293333 0.938667 17.365333 2.816a8.874667 8.874667 0 0 1 4.672 8.021333c0 2.346667-1.002667 4.416-2.965333 6.250667a13.461333 13.461333 0 0 1-7.552 3.413333 97.386667 97.386667 0 0 1-12.352 1.472h-19.626667v-21.973333zM746.666667 192H256a20.565333 20.565333 0 0 0-15.082667 6.250667A20.565333 20.565333 0 0 0 234.666667 213.333333v64h533.333333v-64a20.565333 20.565333 0 0 0-6.250667-15.082666A20.565333 20.565333 0 0 0 746.666667 192z" fill="#ffffff" p-id="18751"></path></svg>