<?xml version="1.0" standalone="no"?><!DOCTYPE svg PUBLIC "-//W3C//DTD SVG 1.1//EN" "http://www.w3.org/Graphics/SVG/1.1/DTD/svg11.dtd"><svg t="1767185689602" class="icon" viewBox="0 0 1024 1024" version="1.1" xmlns="http://www.w3.org/2000/svg" p-id="6101" xmlns:xlink="http://www.w3.org/1999/xlink" width="200" height="200"><path d="M474.08 232a48 48 0 0 1-48-43.52 44.32 44.32 0 0 1 43.68-43.68h421.12a62.24 62.24 0 0 1 8.48 0A43.52 43.52 0 0 1 944 188.48a44.16 44.16 0 0 1-43.68 43.52zM474.08 563.52a43.68 43.68 0 1 1 0-87.2H896a45.12 45.12 0 0 1 48 43.68 44.16 44.16 0 0 1-43.68 43.52zM469.44 895.04a43.68 43.68 0 1 1 0-87.2h421.44a45.12 45.12 0 0 1 48 43.68A44.16 44.16 0 0 1 896 895.04zM261.92 188l63.04-63.04a29.6 29.6 0 1 0-41.92-41.92l-63.04 63.04-63.04-63.04a29.6 29.6 0 0 0-41.92 41.92l63.04 63.04-63.04 63.04a29.6 29.6 0 0 0 41.92 41.92l63.04-63.04 63.04 63.04a29.6 29.6 0 1 0 41.92-41.92zM324.96 419.04a29.76 29.76 0 0 0-41.92 0l-63.04 63.04-63.04-63.04a29.6 29.6 0 1 0-41.92 41.92l63.04 63.04-63.04 63.04a29.6 29.6 0 0 0 41.92 41.92l63.04-63.04 63.04 63.04a29.6 29.6 0 0 0 41.92-41.92l-63.04-63.04 63.04-63.04a29.76 29.76 0 0 0 0-41.92zM324.96 739.04a29.76 29.76 0 0 0-41.92 0l-63.04 63.04-63.04-63.04a29.6 29.6 0 0 0-41.92 41.92l63.04 63.04-63.04 63.04a29.6 29.6 0 0 0 41.92 41.92l63.04-63.04 63.04 63.04a29.6 29.6 0 0 0 41.92-41.92l-63.04-63.04 63.04-63.04a29.76 29.76 0 0 0 0-41.92z" p-id="6102" fill="#ffffff"></path></svg>