<?xml version="1.0" standalone="no"?><!DOCTYPE svg PUBLIC "-//W3C//DTD SVG 1.1//EN" "http://www.w3.org/Graphics/SVG/1.1/DTD/svg11.dtd"><svg t="1764056568794" class="icon" viewBox="0 0 1170 1024" version="1.1" xmlns="http://www.w3.org/2000/svg" p-id="10149" xmlns:xlink="http://www.w3.org/1999/xlink" width="228.515625" height="200"><path d="M285.96419 0a60.099048 60.099048 0 1 1 0 120.198095c-29.45219 0-47.567238 10.654476-51.882666 38.619429l-0.536381 4.315428-0.463238 9.947429v203.337143c0 38.278095-16.091429 70.485333-43.081143 98.401524l-5.168762 5.193142-10.410667 9.386667 10.410667 9.411048c24.966095 24.137143 41.667048 51.46819 46.713905 83.382857l0.902095 6.899809 0.633905 13.287619v248.539429l0.536381 9.947429c2.56 26.209524 15.920762 38.692571 38.424381 41.984l4.071619 0.487619 9.849904 0.463238a60.099048 60.099048 0 1 1 0 120.198095c-87.576381 0-162.133333-51.419429-171.983238-150.357333l-0.560762-6.826667-0.53638-15.896381V602.38019c0-5.071238-10.118095-18.16381-30.915048-32.621714a241.712762 241.712762 0 0 0-44.27581-24.600381 60.099048 60.099048 0 0 1 0-111.518476 238.592 238.592 0 0 0 44.373334-24.576c16.335238-11.459048 26.038857-21.942857 29.403428-28.281905l0.780191-1.633524 0.633905-2.706285V173.080381C112.88381 59.294476 191.951238 0 285.96419 0z m598.454858 0c87.576381 0 162.108952 51.419429 171.958857 150.357333l0.585143 6.826667 0.536381 15.896381v203.337143c0 5.071238 10.020571 18.18819 30.817523 32.646095 13.848381 9.752381 28.696381 17.968762 44.27581 24.576a60.099048 60.099048 0 0 1 0 111.518476c-15.579429 6.607238-30.427429 14.872381-44.27581 24.600381-16.335238 11.434667-26.038857 21.942857-29.427809 28.281905l-0.75581 1.633524-0.633904 2.706285v248.539429l-0.463239 15.823238c-7.119238 103.472762-83.041524 157.257143-172.617142 157.257143a60.099048 60.099048 0 1 1 0-120.198095c29.45219 0 47.567238-10.654476 51.882666-38.619429l0.536381-4.315428 0.463238-9.947429V602.38019c0-38.278095 16.091429-70.460952 43.081143-98.401523l5.168762-5.168762 10.313143-9.411048-10.313143-9.313524c-24.966095-24.210286-41.667048-51.565714-46.713905-83.456l-0.902095-6.92419-0.633905-13.263238V173.080381c0-38.692571-18.895238-52.882286-52.882285-52.882286a60.099048 60.099048 0 1 1 0-120.198095zM462.506667 243.809524c59.733333 0 113.590857 37.254095 135.801904 94.061714l8.143239 20.748191 23.966476-30.622477A217.673143 217.673143 0 0 1 801.767619 243.809524H804.571429C844.946286 243.809524 877.714286 277.308952 877.714286 318.659048c0 41.252571-32.768 74.752-73.167238 74.752h-2.779429a72.655238 72.655238 0 0 0-57.148952 28.038095l-75.776 96.816762 39.009523 99.474285H731.428571c40.399238 0 73.167238 33.499429 73.167239 74.849524 0 41.252571-32.768 74.776381-73.167239 74.776381h-23.600761a146.334476 146.334476 0 0 1-135.875048-94.061714l-8.118857-20.748191-23.966476 30.598096a217.6 217.6 0 0 1-171.300572 84.211809h-2.82819c-40.399238 0-73.167238-33.52381-73.167238-74.776381 0-41.276952 32.768-74.849524 73.167238-74.849524h2.82819c22.186667 0 43.178667-10.288762 57.100191-28.038095l75.776-96.792381-38.936381-99.474285H438.857143c-40.399238 0-73.167238-33.52381-73.167238-74.800762C365.689905 277.308952 398.457905 243.809524 438.857143 243.809524h23.649524z" p-id="10150" fill="#ffffff"></path></svg>