<?xml version="1.0" standalone="no"?><!DOCTYPE svg PUBLIC "-//W3C//DTD SVG 1.1//EN" "http://www.w3.org/Graphics/SVG/1.1/DTD/svg11.dtd"><svg t="1764056833256" class="icon" viewBox="0 0 1024 1024" version="1.1" xmlns="http://www.w3.org/2000/svg" p-id="22758" xmlns:xlink="http://www.w3.org/1999/xlink" width="200" height="200"><path d="M485.422545 977.454545a33.652364 33.652364 0 0 1-16.802909-4.654545l-373.992727-215.784727a33.698909 33.698909 0 0 1-16.802909-29.090909V296.075636a33.698909 33.698909 0 0 1 16.802909-29.137454L468.805818 51.2a33.466182 33.466182 0 0 1 33.605818 0l373.992728 215.924364a33.698909 33.698909 0 0 1 16.802909 29.137454v191.674182a254.231273 254.231273 0 0 0-67.304728-19.735273V320.372364a8.424727 8.424727 0 0 0-4.235636-7.307637l-332.055273-191.534545a8.331636 8.331636 0 0 0-8.378181 0L149.317818 313.111273a8.471273 8.471273 0 0 0-4.189091 7.307636v383.208727a8.471273 8.471273 0 0 0 4.189091 7.307637l331.915637 191.581091a8.517818 8.517818 0 0 0 8.378181 0l80.523637-46.545455a257.117091 257.117091 0 0 0 43.287272 52.736L502.225455 972.8a33.652364 33.652364 0 0 1-16.80291 4.654545z m0.325819-113.012363a33.652364 33.652364 0 0 1-33.652364-33.605818v-294.772364L193.536 386.792727a33.605818 33.605818 0 1 1 33.605818-58.228363l257.954909 148.945454 258.839273-149.410909a33.605818 33.605818 0 0 1 33.605818 58.228364l-258.141091 148.945454v295.563637a33.652364 33.652364 0 0 1-33.652363 33.605818z" fill="#ffffff" p-id="22759"></path><path d="M783.313455 558.545455a162.909091 162.909091 0 1 0 162.90909 162.90909 162.909091 162.909091 0 0 0-162.90909-162.90909z m0 295.842909a132.980364 132.980364 0 1 1 132.980363-132.980364 132.980364 132.980364 0 0 1-132.980363 132.980364z m0 0" fill="#ffffff" p-id="22760"></path><path d="M783.313455 891.252364a169.844364 169.844364 0 1 1 169.844363-169.844364 170.030545 170.030545 0 0 1-169.844363 169.844364z m0-325.818182a155.880727 155.880727 0 1 0 155.880727 155.880727 156.066909 156.066909 0 0 0-155.880727-155.787636z m0 295.842909a139.962182 139.962182 0 1 1 139.962181-139.962182 140.101818 140.101818 0 0 1-139.962181 140.055273z m0-265.960727a125.998545 125.998545 0 1 0 125.998545 125.998545 126.138182 126.138182 0 0 0-125.998545-125.905454z" fill="#ffffff" p-id="22761"></path><path d="M775.866182 644.608a19.176727 19.176727 0 1 0 5.632-13.544727 19.409455 19.409455 0 0 0-5.632 13.544727z m0 0" fill="#ffffff" p-id="22762"></path><path d="M789.550545 821.248a84.759273 84.759273 0 0 1-43.52-0.698182 23.831273 23.831273 0 0 1-7.912727-31.744l24.389818-60.834909a23.272727 23.272727 0 0 0-15.685818-31.697454l-4.654545-1.303273c-13.963636-3.909818-13.963636-9.029818 0.605091-11.357091l13.963636-2.280727a99.328 99.328 0 0 1 43.985455 2.885818 23.784727 23.784727 0 0 1 7.866181 31.744l-22.760727 56.366545a23.738182 23.738182 0 0 0 15.173818 32.162909c13.963636 4.189091 13.544727 10.472727-0.605091 13.963637l-10.891636 2.699636z m0 0" fill="#ffffff" p-id="22763"></path></svg>