<?xml version="1.0" standalone="no"?><!DOCTYPE svg PUBLIC "-//W3C//DTD SVG 1.1//EN" "http://www.w3.org/Graphics/SVG/1.1/DTD/svg11.dtd"><svg t="1769866752792" class="icon" viewBox="0 0 1025 1024" version="1.1" xmlns="http://www.w3.org/2000/svg" p-id="5702" xmlns:xlink="http://www.w3.org/1999/xlink" width="200.1953125" height="200"><path d="M979.2 1024c-6.4 0-19.2 0-25.6-6.4L467.2 550.4c-12.8-6.4-19.2-12.8-19.2-32s6.4-25.6 19.2-32L953.6 12.8c19.2-19.2 38.4-19.2 57.6 0 19.2 19.2 19.2 38.4 0 57.6L556.8 512l454.4 441.6c19.2 19.2 19.2 38.4 0 57.6-6.4 12.8-25.6 12.8-32 12.8z m0 0" fill="#ffffff" p-id="5703"></path><path d="M531.2 1024c-6.4 0-19.2 0-25.6-6.4L19.2 550.4c-12.8-6.4-19.2-12.8-19.2-32s6.4-25.6 19.2-32L505.6 12.8c19.2-19.2 38.4-19.2 57.6 0 19.2 19.2 19.2 38.4 0 57.6L108.8 512l454.4 441.6c19.2 19.2 19.2 38.4 0 57.6-6.4 12.8-25.6 12.8-32 12.8z m0 0" fill="#ffffff" p-id="5704"></path></svg>