<?xml version="1.0" standalone="no"?><!DOCTYPE svg PUBLIC "-//W3C//DTD SVG 1.1//EN" "http://www.w3.org/Graphics/SVG/1.1/DTD/svg11.dtd"><svg t="1775116121228" class="icon" viewBox="0 0 1170 1024" version="1.1" xmlns="http://www.w3.org/2000/svg" p-id="7064" xmlns:xlink="http://www.w3.org/1999/xlink" width="228.515625" height="200"><path d="M164.230095 0.292571H1007.908571c89.478095 0 161.54819 74.215619 161.548191 163.693715v650.971428a161.304381 161.304381 0 0 1-161.548191 161.645715H775.314286c-22.381714 0-43.056762-22.528-43.056762-44.958477s20.675048-50.712381 43.105524-50.712381h219.91619c44.763429 0 79.969524-35.303619 79.969524-80.018285V182.710857c0-44.714667-35.206095-82.066286-79.969524-82.066286h-814.323809c-44.763429 0-82.602667 37.351619-82.602667 82.066286v618.203429c0 44.714667 37.839238 79.969524 82.553905 79.969524h215.868952c22.430476 0 41.447619 19.602286 41.447619 50.761142 0 31.207619-19.017143 44.958476-41.447619 44.958477h-232.594286C74.800762 976.603429 0 904.43581 0 814.957714V163.986286C0 74.50819 74.752 0.292571 164.230095 0.292571z m810.910476 336.700953v307.687619c0 22.430476-16.530286 38.863238-38.912 38.863238h-244.297142c-22.430476 0-37.400381-27.452952-37.400381-49.834667 0-22.430476 15.018667-48.566857 37.400381-48.566857H877.714286V336.993524c0-22.430476 27.062857-43.154286 49.444571-43.154286 22.430476 0 47.981714 20.772571 47.981714 43.154286zM462.652952 585.142857h83.18781c18.139429 0 32.134095 27.209143 32.134095 49.590857 0 22.430476-13.994667 49.639619-32.134095 49.639619H462.652952c-18.139429 0-33.645714-27.209143-33.645714-49.639619 0-22.381714 15.506286-49.590857 33.645714-49.590857z m-236.202666 0H309.638095c18.18819 0 32.134095 27.209143 32.134095 49.590857 0 22.430476-13.945905 49.639619-32.134095 49.639619H226.450286c-18.139429 0-33.645714-27.209143-33.645715-49.639619 0-22.381714 15.506286-49.590857 33.645715-49.590857z m239.079619-292.132571h83.187809c18.18819 0 32.865524 26.282667 32.865524 48.664381 0 22.430476-14.677333 48.713143-32.865524 48.713143H465.529905c-18.139429 0-32.865524-26.331429-32.865524-48.713143 0-22.430476 14.726095-48.664381 32.865524-48.664381z m299.983238 97.328762h-79.335619c-18.139429 0-32.816762-26.282667-32.816762-48.664381 0-22.430476 14.677333-48.713143 32.816762-48.713143H765.561905c18.139429 0 32.865524 26.331429 32.865524 48.713143 0 22.430476-14.726095 48.664381-32.865524 48.664381zM226.596571 293.059048h83.236572c18.139429 0 32.865524 26.282667 32.865524 48.664381 0 22.430476-14.726095 48.713143-32.865524 48.713142H226.596571c-18.139429 0-32.816762-26.331429-32.816761-48.713142 0-22.430476 14.677333-48.664381 32.816761-48.664381z" fill="#ffffff" p-id="7065"></path></svg>