<?xml version="1.0" standalone="no"?><!DOCTYPE svg PUBLIC "-//W3C//DTD SVG 1.1//EN" "http://www.w3.org/Graphics/SVG/1.1/DTD/svg11.dtd"><svg t="1767207431875" class="icon" viewBox="0 0 1024 1024" version="1.1" xmlns="http://www.w3.org/2000/svg" p-id="8233" xmlns:xlink="http://www.w3.org/1999/xlink" width="200" height="200"><path d="M146.285714 109.714286v73.142857h731.428572v-73.142857H146.285714z m0 512h731.428572v-73.142857H146.285714v73.142857z m146.285715-365.714286H219.428571c-43.885714 0-73.142857 29.257143-73.142857 73.142857v73.142857c0 43.885714 29.257143 73.142857 73.142857 73.142857h73.142858c43.885714 0 73.142857-29.257143 73.142857-73.142857v-73.142857c0-43.885714-29.257143-73.142857-73.142857-73.142857z m0 146.285714H219.428571v-73.142857h73.142858v73.142857z m109.714285-73.142857v73.142857c0 43.885714 29.257143 73.142857 73.142857 73.142857h73.142858c43.885714 0 73.142857-29.257143 73.142857-73.142857v-73.142857c0-43.885714-29.257143-73.142857-73.142857-73.142857h-73.142858c-43.885714 0-73.142857 29.257143-73.142857 73.142857z m146.285715 73.142857h-73.142858v-73.142857h73.142858v73.142857z m182.857142 73.142857h73.142858c43.885714 0 73.142857-29.257143 73.142857-73.142857v-73.142857c0-43.885714-29.257143-73.142857-73.142857-73.142857h-73.142858c-43.885714 0-73.142857 29.257143-73.142857 73.142857v73.142857c0 43.885714 29.257143 73.142857 73.142857 73.142857z m0-146.285714h73.142858v73.142857h-73.142858v-73.142857z m-512 585.142857h73.142858c43.885714 0 73.142857-29.257143 73.142857-73.142857v-73.142857c0-43.885714-29.257143-73.142857-73.142857-73.142857H219.428571c-43.885714 0-73.142857 29.257143-73.142857 73.142857v73.142857c0 43.885714 29.257143 73.142857 73.142857 73.142857z m0-146.285714h73.142858v73.142857H219.428571v-73.142857z m256 146.285714h73.142858c43.885714 0 73.142857-29.257143 73.142857-73.142857v-73.142857c0-43.885714-29.257143-73.142857-73.142857-73.142857h-73.142858c-43.885714 0-73.142857 29.257143-73.142857 73.142857v73.142857c0 43.885714 29.257143 73.142857 73.142857 73.142857z m0-146.285714h73.142858v73.142857h-73.142858v-73.142857z m256 146.285714h73.142858c43.885714 0 73.142857-29.257143 73.142857-73.142857v-73.142857c0-43.885714-29.257143-73.142857-73.142857-73.142857h-73.142858c-43.885714 0-73.142857 29.257143-73.142857 73.142857v73.142857c0 43.885714 29.257143 73.142857 73.142857 73.142857z m0-146.285714h73.142858v73.142857h-73.142858v-73.142857z" fill="#ffffff" p-id="8234"></path></svg>