<?xml version="1.0" standalone="no"?><!DOCTYPE svg PUBLIC "-//W3C//DTD SVG 1.1//EN" "http://www.w3.org/Graphics/SVG/1.1/DTD/svg11.dtd"><svg t="1768489610863" class="icon" viewBox="0 0 1024 1024" version="1.1" xmlns="http://www.w3.org/2000/svg" p-id="4876" xmlns:xlink="http://www.w3.org/1999/xlink" width="200" height="200"><path d="M870.4 217.6c14.08 0 25.6 11.52 25.6 25.6v537.6a25.6 25.6 0 0 1-25.6 25.6H153.6a25.6 25.6 0 0 1-25.6-25.6v-448c0-14.08 11.52-25.6 25.6-25.6h384.896l18.688-18.688L628.096 217.6H870.4m0-64H620.16a44.8 44.8 0 0 0-31.68 13.12L512 243.2H153.6A89.6 89.6 0 0 0 64 332.8v448a89.6 89.6 0 0 0 89.6 89.6h716.8a89.6 89.6 0 0 0 89.6-89.6V243.2a89.6 89.6 0 0 0-89.6-89.6zM768 741.376H256a32 32 0 1 1 0-64h512a32 32 0 1 1 0 64z" p-id="4877" fill="#ffffff"></path></svg>