<?xml version="1.0" standalone="no"?><!DOCTYPE svg PUBLIC "-//W3C//DTD SVG 1.1//EN" "http://www.w3.org/Graphics/SVG/1.1/DTD/svg11.dtd"><svg t="1767258715181" class="icon" viewBox="0 0 1024 1024" version="1.1" xmlns="http://www.w3.org/2000/svg" p-id="5590" xmlns:xlink="http://www.w3.org/1999/xlink" width="200" height="200"><path d="M66.782609 772.541217h196.051478a58.835478 58.835478 0 0 1 58.768696 58.768696v117.359304l235.78713-165.442782c9.928348-6.989913 21.615304-10.685217 33.747478-10.685218H957.217391V89.043478H66.782609v683.475479zM313.61113 1022.886957a58.768696 58.768696 0 0 1-58.768695-58.768696v-124.794435H58.724174A58.813217 58.813217 0 0 1 0 780.55513V81.029565A58.835478 58.835478 0 0 1 58.768696 22.26087h906.462608A58.835478 58.835478 0 0 1 1024 81.029565v699.503305a58.835478 58.835478 0 0 1-58.768696 58.768695H593.697391L347.336348 1012.201739c-10.106435 7.101217-21.904696 10.685217-33.725218 10.685218z" fill="#ffffff" p-id="5591"></path><path d="M761.878261 326.032696h-499.756522a33.391304 33.391304 0 0 1 0-66.782609h499.756522a33.391304 33.391304 0 1 1 0 66.782609M761.878261 567.652174h-499.756522a33.391304 33.391304 0 0 1 0-66.782609h499.756522a33.391304 33.391304 0 1 1 0 66.782609" fill="#ffffff" p-id="5592"></path></svg>