<?xml version="1.0" standalone="no"?><!DOCTYPE svg PUBLIC "-//W3C//DTD SVG 1.1//EN" "http://www.w3.org/Graphics/SVG/1.1/DTD/svg11.dtd"><svg t="1769103364259" class="icon" viewBox="0 0 1433 1024" version="1.1" xmlns="http://www.w3.org/2000/svg" p-id="7541" xmlns:xlink="http://www.w3.org/1999/xlink" width="279.8828125" height="200"><path d="M1291.741867 1023.5904H141.858133a112.64 112.64 0 0 1-112.64-112.64V113.083733a112.64 112.64 0 0 1 112.64-112.64h1149.883734a112.64 112.64 0 0 1 112.64 112.64v797.866667c0 60.996267-51.643733 112.64-112.64 112.64zM141.858133 84.923733a31.061333 31.061333 0 0 0-30.481066 30.481067v797.866667a31.061333 31.061333 0 0 0 30.481066 30.5152h1149.883734a31.061333 31.061333 0 0 0 30.5152-30.5152V113.083733a31.061333 31.061333 0 0 0-30.5152-30.5152H141.858133v2.3552z" fill="#ffffff" p-id="7542"></path><path d="M306.141867 1023.5904c-23.483733 0-42.257067-18.773333-42.257067-42.257067V42.666667c0-23.4496 18.773333-42.222933 42.257067-42.222934 23.4496 0 42.222933 18.773333 42.222933 42.222934v938.666666c0 23.483733-18.773333 42.257067-42.222933 42.257067z m821.316266 0c-23.4496 0-42.222933-18.773333-42.222933-42.257067V42.666667c0-23.4496 18.773333-42.222933 42.222933-42.222934 23.483733 0 42.257067 18.773333 42.257067 42.222934v938.666666c0 23.483733-18.773333 42.257067-42.257067 42.257067z" fill="#ffffff" p-id="7543"></path><path d="M306.141867 385.297067H71.4752a31.061333 31.061333 0 0 1-30.5152-30.5152 31.061333 31.061333 0 0 1 30.5152-30.5152h234.666667a31.061333 31.061333 0 0 1 30.5152 30.5152 31.061333 31.061333 0 0 1-30.5152 30.5152z m0 312.081066H71.4752a31.061333 31.061333 0 0 1-30.5152-30.481066 31.061333 31.061333 0 0 1 30.5152-30.5152h234.666667a31.061333 31.061333 0 0 1 30.5152 30.5152 31.061333 31.061333 0 0 1-30.5152 30.481066z m1055.982933-312.081066h-234.666667a31.061333 31.061333 0 0 1-30.481066-30.5152 31.061333 31.061333 0 0 1 30.481066-30.5152h234.666667a31.061333 31.061333 0 0 1 30.5152 30.5152 31.061333 31.061333 0 0 1-30.5152 30.5152z m0 312.081066h-234.666667a31.061333 31.061333 0 0 1-30.481066-30.481066 31.061333 31.061333 0 0 1 30.481066-30.5152h234.666667a31.061333 31.061333 0 0 1 30.5152 30.5152 31.061333 31.061333 0 0 1-30.5152 30.481066z" fill="#ffffff" p-id="7544"></path><path d="M640.887467 373.1456h54.4768l111.8208 292.4544h-51.2l-26.624-73.3184H606.890667L580.266667 665.6h-51.2l111.8208-292.4544zM621.226667 552.96h93.7984l-45.8752-128.2048h-1.6384L621.226667 552.96z m214.6304-179.8144h47.9232V665.6h-47.9232v-292.4544z" fill="#ffffff" p-id="7545"></path></svg>