<?xml version="1.0" standalone="no"?><!DOCTYPE svg PUBLIC "-//W3C//DTD SVG 1.1//EN" "http://www.w3.org/Graphics/SVG/1.1/DTD/svg11.dtd"><svg t="1762739424527" class="icon" viewBox="0 0 1024 1024" version="1.1" xmlns="http://www.w3.org/2000/svg" p-id="9112" xmlns:xlink="http://www.w3.org/1999/xlink" width="200" height="200"><path d="M993.745455 158.254545c0-34.909091-13.963636-67.490909-37.236364-90.763636s-55.854545-37.236364-90.763636-37.236364-67.490909 13.963636-90.763637 37.236364l-200.145454 200.145455-72.145455-72.145455C453.818182 144.290909 372.363636 139.636364 316.509091 186.181818L65.163636 390.981818c-20.945455 16.290909-32.581818 41.890909-34.909091 67.490909-2.327273 25.6 9.309091 51.2 27.927273 69.818182l437.527273 437.527273c18.618182 18.618182 41.890909 27.927273 65.163636 27.927273h4.654546c25.6-2.327273 51.2-13.963636 67.490909-34.909091L837.818182 707.490909c46.545455-55.854545 41.890909-137.309091-9.309091-186.181818l-72.145455-72.145455 200.145455-200.145454c23.272727-23.272727 37.236364-55.854545 37.236364-90.763637zM768 649.309091l-204.8 251.345454-69.818182-69.818181 121.018182-121.018182c18.618182-18.618182 18.618182-46.545455 0-65.163637-18.618182-18.618182-46.545455-18.618182-65.163636 0l-121.018182 121.018182-48.872727-48.872727 121.018181-121.018182c18.618182-18.618182 18.618182-46.545455 0-65.163636-18.618182-18.618182-46.545455-18.618182-65.163636 0L314.181818 651.636364l-48.872727-48.872728 121.018182-121.018181c18.618182-18.618182 18.618182-46.545455 0-65.163637-18.618182-18.618182-46.545455-18.618182-65.163637 0l-121.018181 121.018182-69.818182-69.818182 251.345454-204.8c18.618182-16.290909 46.545455-13.963636 62.836364 2.327273l325.818182 325.818182c9.309091 11.636364 11.636364 39.563636-2.327273 58.181818z m123.345455-465.454546l-200.145455 200.145455-48.872727-48.872727 200.145454-200.145455c13.963636-13.963636 37.236364-13.963636 48.872728 0 6.981818 6.981818 9.309091 16.290909 9.30909 25.6 0 6.981818-2.327273 16.290909-9.30909 23.272727z" fill="#ffffff" p-id="9113"></path></svg>