<?xml version="1.0" standalone="no"?><!DOCTYPE svg PUBLIC "-//W3C//DTD SVG 1.1//EN" "http://www.w3.org/Graphics/SVG/1.1/DTD/svg11.dtd"><svg t="1769348641338" class="icon" viewBox="0 0 1024 1024" version="1.1" xmlns="http://www.w3.org/2000/svg" p-id="15709" xmlns:xlink="http://www.w3.org/1999/xlink" width="200" height="200"><path d="M184.85 239.34h110V628.7h-110z" p-id="15710" fill="#ffffff"></path><path d="M170.44 96.31h110v114.7h-110zM740.21 96.31h110v114.7h-110zM170.44 814.42h110v114.7h-110zM740.21 814.42h110v114.7h-110zM178.78 674.66h671.43v110H178.78z" p-id="15711" fill="#ffffff"></path><path d="M173.79 249.91h118.62v534.75H173.79zM731.59 249.91h118.62v534.75H731.59z" p-id="15712" fill="#ffffff"></path><path d="M798.56 249.91h51.65v534.75h-51.65z" p-id="15713" fill="#ffffff"></path><path d="M173.79 239.34h676.42v110H173.79zM43.29 239.34h100.87v110H43.29zM43.29 674.66h100.87v110H43.29zM879.33 239.34H980.2v110H879.33zM879.33 674.66H980.2v110H879.33zM355.43 400.89h313.15v222.22H355.43z" p-id="15714" fill="#ffffff"></path></svg>