<?xml version="1.0" standalone="no"?><!DOCTYPE svg PUBLIC "-//W3C//DTD SVG 1.1//EN" "http://www.w3.org/Graphics/SVG/1.1/DTD/svg11.dtd"><svg t="1761483729578" class="icon" viewBox="0 0 1088 1024" version="1.1" xmlns="http://www.w3.org/2000/svg" p-id="9044" xmlns:xlink="http://www.w3.org/1999/xlink" width="212.5" height="200"><path d="M824.192 0A200.128 200.128 0 0 1 1024 199.808V512h-64V192a128 128 0 0 0-128-128H192a128 128 0 0 0-127.68 118.4L64 192v640a128 128 0 0 0 118.4 127.68L192 960h320v64H199.808A200.128 200.128 0 0 1 0 824.192V199.808A200.128 200.128 0 0 1 199.808 0h624.384z m85.12 645.504l45.184 45.248-271.488 271.552-65.856 21.504 20.544-66.816 271.552-271.488zM529.984 330.88a64 64 0 0 1 60.736 84.288l136.32 136.448a64.128 64.128 0 0 1 79.232 62.144 64 64 0 1 1-125.44-17.856l-138.24-138.24a64.32 64.32 0 0 1-26.752-0.32L380.48 592.832A63.936 63.936 0 0 1 320 677.76a64 64 0 1 1 11.776-126.912l137.088-137.088a64 64 0 0 1 61.184-82.88zM992 562.752l45.248 45.248-45.248 45.248-45.248-45.248 45.248-45.248z" fill="#ffffff" p-id="9045"></path></svg>