<?xml version="1.0" standalone="no"?><!DOCTYPE svg PUBLIC "-//W3C//DTD SVG 1.1//EN" "http://www.w3.org/Graphics/SVG/1.1/DTD/svg11.dtd"><svg t="1766499584257" class="icon" viewBox="0 0 1070 1024" version="1.1" xmlns="http://www.w3.org/2000/svg" p-id="10627" xmlns:xlink="http://www.w3.org/1999/xlink" width="208.984375" height="200"><path d="M613.794909 835.723636l2.187636 0.093091a19.176727 19.176727 0 0 1 16.430546 23.738182l-1.163636 4.049455A95.511273 95.511273 0 0 1 539.927273 930.909091l-4.421818-0.093091a95.511273 95.511273 0 0 1-88.064-71.307636l-0.41891-2.094546a19.176727 19.176727 0 0 1 19.037091-21.690182h147.735273zM539.927273 93.090909c15.406545 0 27.927273 12.8 27.927272 28.578909v29.975273c143.127273 14.708364 251.345455 143.453091 251.345455 292.305454v201.355637l0.093091 2.839273c1.489455 19.874909 17.687273 35.234909 37.143273 35.234909h6.656l3.165091 0.093091c23.086545 1.489455 43.473455 18.897455 45.800727 42.58909l0.186182 3.025455c0.465455 12.939636-4.189091 25.553455-12.939637 34.909091a46.033455 46.033455 0 0 1-33.512727 14.568727H216.715636l-3.165091-0.093091c-23.086545-1.489455-43.473455-18.897455-45.800727-42.589091l-0.186182-3.025454c-0.465455-12.939636 4.189091-25.553455 12.939637-34.909091A46.08 46.08 0 0 1 214.109091 683.426909h9.309091l2.792727-0.093091a37.701818 37.701818 0 0 0 34.443636-37.981091v-209.454545c0-148.107636 110.219636-269.870545 251.345455-284.206546v-29.975272c0-15.825455 12.520727-28.578909 27.927273-28.578909z" fill="#3B8DFF" p-id="10628"></path></svg>