<?xml version="1.0" standalone="no"?><!DOCTYPE svg PUBLIC "-//W3C//DTD SVG 1.1//EN" "http://www.w3.org/Graphics/SVG/1.1/DTD/svg11.dtd"><svg t="1769271010509" class="icon" viewBox="0 0 1024 1024" version="1.1" xmlns="http://www.w3.org/2000/svg" p-id="4868" xmlns:xlink="http://www.w3.org/1999/xlink" width="200" height="200"><path d="M634.88 936.32H121.6a32 32 0 0 1-32-32V391.04a32 32 0 0 1 32-32h513.28a32 32 0 0 1 32 32v513.28a32 32 0 0 1-32 32z m-481.28-64h449.28V423.04H153.6v449.28z m612.032-97.28a32 32 0 0 1-32-32V288.832H279.488a32 32 0 0 1 0-64h486.144a32 32 0 0 1 32 32v486.208a32 32 0 0 1-32 32zM902.4 637.632a32 32 0 0 1-32-32V151.68H416.192a32 32 0 1 1 0-64H902.4a32 32 0 0 1 32 32v485.952a32 32 0 0 1-32 32z" fill="#ffffff" p-id="4869"></path></svg>