<?xml version="1.0" standalone="no"?><!DOCTYPE svg PUBLIC "-//W3C//DTD SVG 1.1//EN" "http://www.w3.org/Graphics/SVG/1.1/DTD/svg11.dtd"><svg t="1769879327775" class="icon" viewBox="0 0 1024 1024" version="1.1" xmlns="http://www.w3.org/2000/svg" p-id="13793" xmlns:xlink="http://www.w3.org/1999/xlink" width="200" height="200"><path d="M207.488 851.968V172.8q0-35.52 22.72-60.032 22.336-24.128 53.248-24.128 20.224 0 38.4 11.712l260.736 169.728 262.528 170.88q38.72 25.216 38.72 71.36 0 46.08-38.72 71.36l-262.528 170.88-260.8 169.728q-17.792 11.776-38.4 11.776-30.848 0-53.184-24.128-22.72-24.512-22.72-60.032z m326.656-171.84l-228.096 148.48-9.6 6.208V190.08l9.6 6.272 227.968 148.416 248.896 161.92 8.768 5.76-8.768 5.696-248.768 161.984z" p-id="13794" fill="#0c9015"></path></svg>