<?xml version="1.0" standalone="no"?><!DOCTYPE svg PUBLIC "-//W3C//DTD SVG 1.1//EN" "http://www.w3.org/Graphics/SVG/1.1/DTD/svg11.dtd"><svg t="1773903053715" class="icon" viewBox="0 0 1024 1024" version="1.1" xmlns="http://www.w3.org/2000/svg" p-id="1856" xmlns:xlink="http://www.w3.org/1999/xlink" width="200" height="200"><path d="M811.008 578.432h199.36V512h-199.36V372.48c79.744-19.968 166.08-79.744 166.08-225.92h-66.432c0 159.488-146.176 166.4-166.08 166.4H279.424c-6.4 0-166.08 0-166.08-166.08H46.912c0 139.52 86.336 199.296 166.4 225.92V512H13.632v66.432h199.36V678.4a275.2 275.2 0 0 0 19.968 106.368C153.216 797.696 46.912 857.6 46.912 1010.368h66.432c0-139.584 106.304-159.488 152.832-166.4A299.328 299.328 0 0 0 512 977.088c106.304 0 192.704-53.12 245.824-132.864 39.872 6.4 152.832 26.56 152.832 166.4h66.432c0-152.832-106.304-212.672-186.048-225.92a275.2 275.2 0 0 0 19.968-106.304zM512 910.656c-126.272 0-232.576-106.304-232.576-232.576V379.136h199.36v398.656h66.432V379.136h199.36V678.4c0 126.272-106.304 232.576-232.576 232.576z m0 0" fill="#ffffff" p-id="1857"></path><path d="M512 13.632c-126.272 0-232.576 106.368-232.576 232.576h465.152c0-126.208-106.304-232.576-232.576-232.576z m-152.832 166.4a167.04 167.04 0 0 1 305.664 0z m0 0" fill="#ffffff" p-id="1858"></path></svg>