<?xml version="1.0" standalone="no"?><!DOCTYPE svg PUBLIC "-//W3C//DTD SVG 1.1//EN" "http://www.w3.org/Graphics/SVG/1.1/DTD/svg11.dtd"><svg t="1767804330222" class="icon" viewBox="0 0 1024 1024" version="1.1" xmlns="http://www.w3.org/2000/svg" p-id="14749" xmlns:xlink="http://www.w3.org/1999/xlink" width="200" height="200"><path d="M718.0544 0.0768c6.656 0 13.1584 1.408 19.2256 3.8656 2.56 1.0496 4.5568 2.9184 6.8864 4.352 2.944 1.792 6.144 3.1232 8.704 5.504l175.104 163.456c10.3424 9.6512 16.1792 23.1424 16.2048 37.2992l-0.0256 271.9232h-102.0672V236.7232l-144.128-134.6048H536.064l-0.1536 116.5312c0 36.3776-32.3584 64.9216-73.728 64.9216h-181.4272c-41.344 0-73.728-28.544-73.728-64.9728v-116.48H144.7168a17.024 17.024 0 0 0-17.024 17.024v782.7968c0 9.4208 7.6032 17.024 17.024 17.024H486.4v102.0672H144.6912a119.2448 119.2448 0 0 1-118.9632-113.6384L25.6 901.9648V119.1424A119.2192 119.2192 0 0 1 144.6912 0.0768zM433.9968 102.144h-124.8768v79.36h124.7744l0.1024-79.36z" fill="#ffffff" p-id="14750"></path><path d="M179.2 396.8c0 21.1968 16.8448 38.4 37.632 38.4h334.336c20.7872 0 37.632-17.2032 37.632-38.4s-16.8448-38.4-37.632-38.4H216.832C196.0192 358.4 179.2 375.5776 179.2 396.8z m194.6624 89.6H214.9376C195.2 486.4 179.2 503.6032 179.2 524.8S195.2 563.2 214.9376 563.2h158.9248c19.7376 0 35.7376-17.2032 35.7376-38.4s-16-38.4-35.7376-38.4zM954.2656 776.8064c7.936 0 14.8736 2.432 21.248 6.784 6.4768 4.9664 10.6752 12.3136 11.6736 20.4032 0.5888 6.3232 0.5888 12.16 0.5888 17.5104-0.0512 106.368-94.1824 192.3584-210.5344 192.3584-64.768 0-127.4368-28.16-166.656-75.776-25.5232-35.456-24.32-48.5888-23.2192-52.9408h-0.0512s2.8416-13.0048 16.7424-13.1328c4.5056 0 60.9792-1.3312 101.7856-2.048 0 0 12.8 0.2304 17.6128 9.5744 5.3504 10.5728-2.2016 17.6128-2.2016 17.6128l-29.44 31.232a153.6768 153.6768 0 0 0 85.504 25.728c80.128 0 145.1264-59.264 145.1264-132.608 0-6.8096 0-13.6192 1.4592-20.4032a30.5408 30.5408 0 0 1 27.648-24.32h2.7136zM786.304 588.8c68.736 0 135.2192 28.8512 176.9472 77.6704 27.0336 36.3008 25.6768 49.792 24.5248 54.2208 0 0-2.9696 13.3632-17.792 13.4144-4.736 0.0768-64.6144 1.408-107.8272 2.2016 0 0-13.6192-0.256-18.6624-9.9072-5.7088-10.752 2.2016-18.0224 2.2016-18.0224l31.3344-31.9488a167.3472 167.3472 0 0 0-90.7264-26.4192c-85.0176 0-153.8304 60.7232-153.8304 135.9104 0 6.9632 0 13.952-1.6896 20.8896-3.1232 13.8752-15.0528 24.064-29.2608 24.8832h-2.816c-8.0384 0-15.9232-2.4064-22.5792-6.9888a30.976 30.976 0 0 1-12.3904-20.8896C563.2 797.3376 563.2 791.3728 563.2 785.92 563.2 676.864 662.912 588.8 786.304 588.8z" fill="#ffffff" p-id="14751"></path></svg>