<?xml version="1.0" standalone="no"?><!DOCTYPE svg PUBLIC "-//W3C//DTD SVG 1.1//EN" "http://www.w3.org/Graphics/SVG/1.1/DTD/svg11.dtd"><svg t="1768620648632" class="icon" viewBox="0 0 1024 1024" version="1.1" xmlns="http://www.w3.org/2000/svg" p-id="7413" xmlns:xlink="http://www.w3.org/1999/xlink" width="200" height="200"><path d="M238.355692 48.836923A39.384615 39.384615 0 0 1 263.876923 39.384615h496.246154a39.384615 39.384615 0 0 1 25.521231 9.452308l185.107692 157.538462A39.384615 39.384615 0 0 1 945.230769 275.692308H78.769231a39.384615 39.384615 0 0 1-25.521231-69.316923l185.107692-157.538462zM185.816615 196.923077h652.36677l-92.553847-78.769231H278.370462l-92.553847 78.769231z" fill="#ffffff" p-id="7414"></path><path d="M39.384615 236.307692a39.384615 39.384615 0 0 1 39.384616-39.384615h866.461538a39.384615 39.384615 0 0 1 39.384616 39.384615v708.923077a39.384615 39.384615 0 0 1-39.384616 39.384616H78.769231a39.384615 39.384615 0 0 1-39.384616-39.384616V236.307692z m78.769231 39.384616v630.153846h787.692308v-630.153846h-787.692308z" fill="#ffffff" p-id="7415"></path><path d="M275.692308 630.153846h85.622154a39.384615 39.384615 0 1 0 0-78.769231H275.692308a39.384615 39.384615 0 0 0 0 78.769231z m393.846154 0h85.622153a39.384615 39.384615 0 0 0 0-78.769231H669.538462a39.384615 39.384615 0 0 0 0 78.769231z" fill="#ffffff" p-id="7416"></path><path d="M512 748.307692a157.538462 157.538462 0 1 0 0-315.076923 157.538462 157.538462 0 0 0 0 315.076923z m0-78.76923a78.769231 78.769231 0 1 1 0-157.538462 78.769231 78.769231 0 0 1 0 157.538462z" fill="#ffffff" p-id="7417"></path></svg>