<?xml version="1.0" standalone="no"?><!DOCTYPE svg PUBLIC "-//W3C//DTD SVG 1.1//EN" "http://www.w3.org/Graphics/SVG/1.1/DTD/svg11.dtd"><svg t="1770256246348" class="icon" viewBox="0 0 1024 1024" version="1.1" xmlns="http://www.w3.org/2000/svg" p-id="6878" xmlns:xlink="http://www.w3.org/1999/xlink" width="200" height="200"><path d="M853.555285 768.102016a425.010987 425.010987 0 0 0 85.350358-256.153472 426.649387 426.649387 0 0 0-426.700587-426.751787A426.649387 426.649387 0 0 0 85.453269 511.999744c0 96.358352 31.999984 185.395107 85.862357 256.767872l7.372797 9.779195a43.724778 43.724778 0 0 1-6.604797 60.10877l-0.3584 0.358399a40.85758 40.85758 0 0 1-57.702371-4.812797A509.951745 509.951745 0 0 1 0.000512 512.102144C0.000512 229.171085 229.222797 0 512.051456 0c282.828659 0 512.204544 229.119885 512.204544 511.948544a509.542145 509.542145 0 0 1-113.049544 320.92144l-3.276798 3.276798a44.185578 44.185578 0 0 1-60.31357 2.303999 41.369579 41.369579 0 0 1-4.454398-58.265571l10.393595-12.083194zM511.027456 254.873473a256.102272 256.102272 0 0 1 224.051088 380.10861l-2.150398 4.198397a43.110378 43.110378 0 0 1-54.476773 20.99199 39.73118 39.73118 0 0 1-22.527989-51.455974l17.049592-43.673579a170.751915 170.751915 0 1 0-323.327839 1.536l15.974392 40.857579a40.44798 40.44798 0 0 1-22.988788 52.582374l-0.6144 0.256a42.598379 42.598379 0 0 1-54.271973-23.603188 256.819072 256.819072 0 0 1-32.767983-125.747137c0-141.311929 114.687943-255.999872 256.051071-255.999872z m309.247846 727.551636a25.599987 25.599987 0 0 1-19.96799 41.574379H224.1028a25.651187 25.651187 0 0 1-20.07039-41.676779l288.153456-360.14062a25.497587 25.497587 0 0 1 39.98718 0.1024l288.153456 360.19182z" fill="#ffffff" p-id="6879"></path></svg>