<?xml version="1.0" standalone="no"?><!DOCTYPE svg PUBLIC "-//W3C//DTD SVG 1.1//EN" "http://www.w3.org/Graphics/SVG/1.1/DTD/svg11.dtd"><svg t="1762687240707" class="icon" viewBox="0 0 1024 1024" version="1.1" xmlns="http://www.w3.org/2000/svg" p-id="6002" xmlns:xlink="http://www.w3.org/1999/xlink" width="200" height="200"><path d="M949.111487 813.314458l-184.31785-104.830777a22.186408 22.186408 0 0 0-33.279611 19.199776v210.344213c0 17.237132 18.559783 28.159671 33.279611 19.199776l184.31785-104.873443a22.741068 22.741068 0 0 0 0-39.039545zM485.756893 1.889258C396.157938 15.371767 328.958722 93.96285 328.958722 186.676435v24.959709h365.435737v-24.959709c0-53.716707-23.039731-105.47077-63.359261-140.670358A178.003257 178.003257 0 0 0 485.756893 1.889258z m191.99776 938.058389a186.87782 186.87782 0 0 1-33.279612-106.79342 189.352458 189.352458 0 0 1 189.43779-189.267126c2.55997 0 4.479948 0.639993 7.039918 0.639993v-67.796543h146.55829c20.479761 0 36.479574-16.639806 36.479574-37.0769 0-20.479761-16.639806-37.119567-36.479574-37.119567H840.952749V327.38946l98.55885-95.913547a37.716893 37.716893 0 0 0-14.719828-62.633936 35.540919 35.540919 0 0 0-35.839582 8.959895L784.633406 279.39002H239.359767L135.040985 178.399199a35.540919 35.540919 0 0 0-35.839582-8.959896c-12.799851 3.839955-22.399739 14.079836-24.959709 26.879687a37.546229 37.546229 0 0 0 10.23988 35.754249l98.558851 95.913548v174.589963H36.482134a36.010247 36.010247 0 0 0-36.479574 36.436908c0 20.479761 16.639806 37.119567 36.479574 37.119567H183.040425v75.433787c0 61.353951 16.639806 119.550605 44.799477 168.787364l-143.358328 139.390374a37.716893 37.716893 0 0 0 14.719829 62.676602c12.799851 3.839955 26.239694 0.639993 35.839582-8.959896l136.958402-132.990448a327.676177 327.676177 0 0 0 203.517625 104.23345V539.653651c0-20.479761 16.639806-37.119567 36.479575-37.119567 20.479761 0 36.479574 16.639806 36.479574 37.119567v445.008141c46.079462-5.11994 89.598955-21.077087 129.278492-44.714145z" fill="#ffffff" p-id="6003"></path></svg>