<?xml version="1.0" standalone="no"?><!DOCTYPE svg PUBLIC "-//W3C//DTD SVG 1.1//EN" "http://www.w3.org/Graphics/SVG/1.1/DTD/svg11.dtd"><svg t="1764327954403" class="icon" viewBox="0 0 1024 1024" version="1.1" xmlns="http://www.w3.org/2000/svg" p-id="5826" xmlns:xlink="http://www.w3.org/1999/xlink" width="200" height="200"><path d="M660.48 327.68c-15.36 0-25.6 10.24-25.6 25.6V665.6c0 15.36 10.24 25.6 25.6 25.6s25.6-10.24 25.6-25.6V353.28c0-10.24-10.24-25.6-25.6-25.6z" fill="#ffffff" p-id="5827"></path><path d="M512 117.76c-220.16 0-394.24 179.2-394.24 394.24s179.2 394.24 394.24 394.24c220.16 0 394.24-179.2 394.24-394.24S732.16 117.76 512 117.76z m0 737.28a343.04 343.04 0 1 1 0-686.08 343.04 343.04 0 0 1 0 686.08z" fill="#ffffff" p-id="5828"></path><path d="M404.48 348.16c-30.72-25.6-76.8-5.12-76.8 30.72v261.12c0 40.96 46.08 61.44 76.8 30.72l133.12-133.12c15.36-15.36 15.36-46.08 0-61.44L404.48 348.16z" fill="#ffffff" p-id="5829"></path></svg>