<?xml version="1.0" standalone="no"?><!DOCTYPE svg PUBLIC "-//W3C//DTD SVG 1.1//EN" "http://www.w3.org/Graphics/SVG/1.1/DTD/svg11.dtd"><svg t="1767804231137" class="icon" viewBox="0 0 1024 1024" version="1.1" xmlns="http://www.w3.org/2000/svg" p-id="9203" xmlns:xlink="http://www.w3.org/1999/xlink" width="200" height="200"><path d="M880.810667 565.333333h-326.4a34.432 34.432 0 0 0-33.28 35.84v312.789334a34.730667 34.730667 0 0 0 33.152 36.096h326.4a34.218667 34.218667 0 0 0 32.981333-35.2v-313.472a35.029333 35.029333 0 0 0-32.853333-36.053334zM504.234667 121.173333a35.285333 35.285333 0 0 0-9.216-24.746666 34.432 34.432 0 0 0-24.021334-11.093334h-326.4a34.005333 34.005333 0 0 0-32.853333 35.114667v312.192c-1.109333 18.773333 13.226667 34.858667 31.957333 35.968h327.253334a34.432 34.432 0 0 0 33.28-35.84V121.173333zM616.490667 153.002667a212.309333 212.309333 0 0 1 200.96 176.853333 3.413333 3.413333 0 0 1-0.725334 2.389333 2.944 2.944 0 0 1-2.261333 1.066667h-52.352l88.234667 131.456L938.666667 333.312h-59.392a2.944 2.944 0 0 1-2.986667-2.688 271.232 271.232 0 0 0-254.592-240.853333h-0.085333a31.402667 31.402667 0 0 0-31.189334 31.573333c0.341333 15.36 11.093333 28.416 26.069334 31.658667zM407.637333 881.109333a210.56 210.56 0 0 1-205.013333-211.925333c0-1.706667 1.322667-3.029333 2.986667-3.029333h56.405333l-88.362667-131.413334L85.333333 666.112h56.704c0.810667 0 1.578667 0.341333 2.133334 0.896a2.858667 2.858667 0 0 1 0.938666 2.133333 272.341333 272.341333 0 0 0 256 275.072h3.242667a31.658667 31.658667 0 0 0 3.285333-63.146666z" p-id="9204" fill="#ffffff"></path></svg>