<?xml version="1.0" standalone="no"?><!DOCTYPE svg PUBLIC "-//W3C//DTD SVG 1.1//EN" "http://www.w3.org/Graphics/SVG/1.1/DTD/svg11.dtd"><svg t="1769868384349" class="icon" viewBox="0 0 1024 1024" version="1.1" xmlns="http://www.w3.org/2000/svg" p-id="7689" xmlns:xlink="http://www.w3.org/1999/xlink" width="200" height="200"><path d="M622.592 1013.248H401.408c-43.52 0-75.776-32.768-75.776-75.776 0-8.192 0-26.112 14.336-42.496l109.056-143.872c22.528-30.208 64-40.96 95.744-24.576 7.168 3.584 14.336 8.704 19.968 14.336 2.56 2.56 5.12 5.12 17.92 24.064l104.448 137.216 2.56 6.144c13.824 34.304 1.024 74.752-28.672 93.696-10.24 7.168-23.04 11.264-38.4 11.264zM454.144 911.36h112.64l-56.32-74.24-56.32 74.24z m75.776-99.328z" fill="#ffffff" p-id="7690"></path><path d="M930.816 825.344h-162.304c-32.256 0-59.904-13.824-77.824-38.4l-178.176-216.064-0.512-1.024-2.56 2.56-176.128 212.992-1.536 1.536c-12.288 12.288-38.4 33.28-73.216 33.28H97.28c-56.32 0-97.28-40.96-97.28-97.28V110.08c0-56.32 40.96-97.28 97.28-97.28h834.048c56.32 0 97.28 40.96 97.28 97.28v617.984c-0.512 56.32-41.472 97.28-97.792 97.28z m-159.744-101.888h155.648V114.688H101.376v604.16h154.112c1.024-0.512 2.048-1.536 3.072-2.56l175.616-212.48 4.096-4.096c27.648-34.304 73.216-44.544 117.248-27.136l9.728 4.096 11.776 11.776c5.12 5.12 12.8 12.8 20.48 26.112l173.568 208.896z m161.28 0z" fill="#ffffff" p-id="7691"></path><path d="M627.2 233.472H368.128c-26.112 0-43.008 17.408-43.008 43.008s17.408 43.008 43.008 43.008h258.56c26.112 0 43.008-17.408 43.008-43.008s-16.896-43.008-42.496-43.008z" fill="#ffffff" p-id="7692"></path></svg>