<?xml version="1.0" standalone="no"?><!DOCTYPE svg PUBLIC "-//W3C//DTD SVG 1.1//EN" "http://www.w3.org/Graphics/SVG/1.1/DTD/svg11.dtd"><svg t="1772760014859" class="icon" viewBox="0 0 1024 1024" version="1.1" xmlns="http://www.w3.org/2000/svg" p-id="5092" xmlns:xlink="http://www.w3.org/1999/xlink" width="200" height="200"><path d="M594.990545 199.726545a27.927273 27.927273 0 0 1 26.484364 13.777455l199.074909 341.317818-48.221091 28.16-169.472-290.583273-150.062545 400.058182a27.927273 27.927273 0 0 1-49.012364 6.237091L204.660364 414.254545l45.754181-32.023272 168.727273 240.965818 152.017455-405.410909a27.927273 27.927273 0 0 1 23.831272-18.059637z" fill="#ffffff" p-id="5093"></path><path d="M426.682182 796.439273a113.757091 113.757091 0 1 0 0-227.560728 113.757091 113.757091 0 0 0 0 227.607273zM597.317818 341.317818a85.317818 85.317818 0 1 0 0-170.682182 85.317818 85.317818 0 0 0 0 170.682182zM796.439273 705.442909a96.721455 96.721455 0 1 0 0-193.442909 96.721455 96.721455 0 0 0 0 193.442909zM199.121455 455.121455a85.317818 85.317818 0 1 0 0-170.682182 85.317818 85.317818 0 0 0 0 170.682182z" fill="#ffffff" p-id="5094"></path></svg>