<?xml version="1.0" standalone="no"?><!DOCTYPE svg PUBLIC "-//W3C//DTD SVG 1.1//EN" "http://www.w3.org/Graphics/SVG/1.1/DTD/svg11.dtd"><svg t="1764573625675" class="icon" viewBox="0 0 1024 1024" version="1.1" xmlns="http://www.w3.org/2000/svg" p-id="12806" xmlns:xlink="http://www.w3.org/1999/xlink" width="200" height="200"><path d="M133.005897 721.92l4.169143 8.411429c2.194286 4.242286 5.485714 10.093714 10.020571 17.554285 77.604571 127.268571 216.137143 212.114286 374.125715 212.114286 41.106286 0 80.969143-5.778286 118.710857-16.530286v45.714286a39.497143 39.497143 0 0 0 4.900571 19.163429c-39.497143 10.24-80.969143 15.652571-123.611428 15.652571-182.491429 0-342.308571-99.035429-430.372572-247.149714l-10.093714-17.993143a227.401143 227.401143 0 0 1-5.997714-12.141714l-2.194286-5.851429a29.257143 29.257143 0 0 1 17.188571-35.254857 34.157714 34.157714 0 0 1 43.154286 16.237714z m602.697143-81.92a29.988571 29.988571 0 0 1 15.798857 4.608l256.073143 158.500571c21.942857 13.604571 21.942857 44.105143 0 57.782858l-256.146286 158.500571a29.403429 29.403429 0 0 1-15.725714 4.608 32.841143 32.841143 0 0 1-31.670857-33.938286V673.938286c0-19.748571 15.140571-33.938286 31.670857-33.938286z m208.749714 197.485714L762.912183 719.725714v236.544c0 0.512 5.193143-0.365714 5.266286 0l175.908571-114.541714a2.56 2.56 0 0 0 1.243429-2.267429 2.633143 2.633143 0 0 0-0.731429-1.974857zM521.321326 0C798.971611 0 1024.032183 229.229714 1024.032183 512c0 73.801143-15.36 143.945143-42.934857 207.286857l-53.101715-36.205714c21.357714-52.736 33.206857-110.445714 33.206858-171.081143 0-247.442286-196.973714-448-439.881143-448-156.086857 0-293.156571 82.724571-371.2 207.506286-6.436571 10.166857-14.994286 26.624-21.577143 39.643428l113.956571-18.432a31.451429 31.451429 0 0 1 35.693715 26.697143 31.817143 31.817143 0 0 1-26.038858 36.571429l-155.282285 25.014857a62.756571 62.756571 0 0 1-71.826286-53.101714L0.397897 169.691429a32.036571 32.036571 0 0 1 26.185143-36.571429 31.305143 31.305143 0 0 1 35.84 26.331429l17.042286 109.202285c5.266286-10.24 10.752-20.48 15.286857-27.794285C183.547611 96.256 341.389897 0 521.321326 0z m26.770285 192c17.334857 0 31.451429 14.628571 31.451429 32.109714v287.597715a63.780571 63.780571 0 0 1-63.122286 64.292571l-282.477714 64a31.670857 31.670857 0 0 1-31.451429-32.036571c0-17.627429 14.262857-31.963429 31.232-31.963429L485.33504 512c17.334857 0 31.305143-14.628571 31.305143-31.817143V223.817143c0-17.554286 13.897143-31.817143 31.451428-31.817143z" p-id="12807" fill="#ffffff"></path></svg>