<?xml version="1.0" standalone="no"?><!DOCTYPE svg PUBLIC "-//W3C//DTD SVG 1.1//EN" "http://www.w3.org/Graphics/SVG/1.1/DTD/svg11.dtd"><svg t="1766499532666" class="icon" viewBox="0 0 1027 1024" version="1.1" xmlns="http://www.w3.org/2000/svg" p-id="8706" xmlns:xlink="http://www.w3.org/1999/xlink" width="200.5859375" height="200"><path d="M336 966.4c-31.2 0-60.8-12.8-83.2-34.4-21.6-21.6-34.4-52-34.4-83.2 0-31.2 12.8-60.8 34.4-83.2 21.6-21.6 52-34.4 83.2-34.4 31.2 0 60.8 12.8 83.2 34.4 21.6 21.6 34.4 52 34.4 83.2 0 31.2-12.8 60.8-34.4 83.2-22.4 22.4-52.8 34.4-83.2 34.4z m0-194.4c-20 0-40.8 8.8-54.4 22.4-14.4 14.4-22.4 34.4-22.4 54.4s8.8 40.8 22.4 54.4c14.4 14.4 34.4 22.4 54.4 22.4s40.8-8.8 54.4-22.4c14.4-14.4 22.4-34.4 22.4-54.4s-8.8-40.8-22.4-54.4c-14.4-13.6-34.4-22.4-54.4-22.4zM344 291.2c-31.2 0-60.8-12.8-83.2-34.4-21.6-21.6-34.4-52-34.4-83.2 0-31.2 12.8-60.8 34.4-83.2C282.4 68.8 312.8 56 344 56c31.2 0 60.8 12.8 83.2 34.4 21.6 21.6 34.4 52 34.4 83.2 0 31.2-12.8 60.8-34.4 83.2-22.4 21.6-52.8 34.4-83.2 34.4zM344 96c-20 0-40.8 8.8-54.4 22.4-14.4 14.4-22.4 34.4-22.4 54.4s8.8 40.8 22.4 54.4c14.4 14.4 34.4 22.4 54.4 22.4s40.8-8.8 54.4-22.4c14.4-14.4 22.4-34.4 22.4-54.4s-8.8-40.8-22.4-54.4C384 104.8 364 96 344 96zM149.6 664c-39.2 0-76.8-16-104-43.2-27.2-27.2-43.2-65.6-43.2-104 0-39.2 16-76.8 43.2-104 27.2-27.2 65.6-43.2 104-43.2s76.8 16 104 43.2c27.2 27.2 43.2 65.6 43.2 104 0 39.2-16 76.8-43.2 104-27.2 28-65.6 43.2-104 43.2z m0-255.2c-28 0-56 12-76 31.2-20 20-31.2 48-31.2 76s12 56 31.2 76c20 20 48 31.2 76 31.2s56-12 76-31.2c20-20 31.2-48 31.2-76s-12-56-31.2-76c-20-19.2-48.8-31.2-76-31.2zM740 942.4c-24.8 0-48.8-9.6-65.6-27.2-17.6-17.6-27.2-41.6-27.2-65.6 0-24.8 9.6-48.8 27.2-65.6 17.6-17.6 41.6-27.2 65.6-27.2s48.8 9.6 65.6 27.2c17.6 17.6 27.2 41.6 27.2 65.6 0 24.8-9.6 48.8-27.2 65.6-16.8 16.8-40.8 27.2-65.6 27.2z m0-146.4c-13.6 0-28 5.6-37.6 15.2-9.6 9.6-15.2 24-15.2 37.6 0 13.6 5.6 28 15.2 37.6 9.6 9.6 24 15.2 37.6 15.2 13.6 0 28-5.6 37.6-15.2 9.6-9.6 15.2-24 15.2-37.6s-5.6-28-15.2-37.6c-9.6-8.8-24-15.2-37.6-15.2zM942.4 595.2c-22.4 0-44-8.8-60-24.8s-24.8-37.6-24.8-60 8.8-44 24.8-60 37.6-24.8 60-24.8 44 8.8 60 24.8 24.8 37.6 24.8 60-8.8 44-24.8 60-37.6 24.8-60 24.8z m0-129.6c-12 0-23.2 4.8-32 12.8-8 8-12.8 20-12.8 32s4.8 23.2 12.8 32c8 8 20 12.8 32 12.8s23.2-4.8 32-12.8c8-8 12.8-20 12.8-32s-4.8-23.2-12.8-32c-8.8-8-20.8-12.8-32-12.8zM743.2 234.4c-18.4 0-36.8-7.2-49.6-20.8-12.8-12.8-20.8-31.2-20.8-49.6 0-18.4 7.2-36.8 20.8-49.6 12.8-12.8 31.2-20.8 49.6-20.8 18.4 0 36.8 7.2 49.6 20.8 12.8 12.8 20.8 31.2 20.8 49.6 0 18.4-7.2 36.8-20.8 49.6-13.6 13.6-31.2 20.8-49.6 20.8z m0-100c-8 0-16 3.2-21.6 8.8-5.6 5.6-8.8 13.6-8.8 21.6 0 8 3.2 16 8.8 21.6 5.6 5.6 13.6 8.8 21.6 8.8s16-3.2 21.6-8.8c5.6-5.6 8.8-13.6 8.8-21.6 0-8-3.2-16-8.8-21.6-6.4-5.6-14.4-8.8-21.6-8.8z" fill="#409EFF" p-id="8707"></path></svg>