<?xml version="1.0" standalone="no"?><!DOCTYPE svg PUBLIC "-//W3C//DTD SVG 1.1//EN" "http://www.w3.org/Graphics/SVG/1.1/DTD/svg11.dtd"><svg t="1762739458847" class="icon" viewBox="0 0 1024 1024" version="1.1" xmlns="http://www.w3.org/2000/svg" p-id="10131" xmlns:xlink="http://www.w3.org/1999/xlink" width="200" height="200"><path d="M93.297778 649.102222l-11.946667 60.302222c-6.826667 21.617778-29.013333 34.133333-50.631111 27.875556a36.977778 36.977778 0 0 1-29.582222-44.373333l43.235555-133.688889c2.844444-10.808889 9.671111-20.48 19.342223-25.6 9.671111-5.688889 20.48-7.395556 31.288888-4.551111l139.946667 42.097777c10.808889 2.844444 19.911111 10.24 25.031111 19.911112 5.688889 9.671111 6.826667 21.617778 3.982222 32.426666-2.844444 21.617778-23.893333 35.271111-43.804444 29.013334l-42.666667-12.515556C233.244444 796.444444 384.568889 894.862222 546.133333 880.071111c161.564444-14.222222 294.115556-138.24 322.56-302.08-0.568889 12.515556 14.791111 0 32.995556 0 12.515556 0 24.462222 5.688889 32.426667 15.36 7.964444 9.671111 11.377778 22.755556 8.533333 35.271111-50.062222 195.128889-220.728889 332.8-417.564445 336.782222-196.835556 4.551111-372.622222-125.155556-431.217777-318.008888z m318.008889 78.506667a39.082667 39.082667 0 0 1-15.36-31.288889v-358.4c0-12.515556 5.688889-23.893333 15.36-31.288889 9.102222-6.257778 21.617778-6.257778 30.151111 1.137778l248.604444 179.2c18.773333 15.928889 18.773333 44.942222 0 60.871111l-248.604444 179.2a25.6 25.6 0 0 1-30.151111 1.137778z m522.808889-232.675556l-62.008889-17.066666-85.333334-29.582223a42.780444 42.780444 0 0 1-31.288889-52.906666c6.257778-23.324444 30.151111-36.977778 52.906667-29.582222l42.666667 17.635555c-42.097778-118.328889-141.084444-206.506667-261.12-233.244444-24.462222-5.688889-50.062222-8.533333-75.093334-7.964445-162.133333 0-303.786667 110.933333-347.022222 271.36a42.666667 42.666667 0 0 1-41.528889 36.408889c-28.444444 0-48.355556-29.013333-39.253333-56.32C137.671111 198.542222 307.768889 61.44 504.604444 56.888889c196.835556-4.551111 372.622222 125.155556 431.786667 317.44l5.12-62.008889c4.551111-23.893333 29.582222-38.115556 51.768889-30.151111 10.808889 2.844444 19.911111 10.24 25.031111 19.911111 5.688889 9.671111 6.826667 21.617778 3.982222 32.426667l-37.546666 129.706666c-2.844444 10.808889-9.671111 20.48-19.342223 25.6-9.671111 5.688889-21.048889 7.395556-31.857777 3.982223z" p-id="10132" fill="#ffffff"></path></svg>