<?xml version="1.0" standalone="no"?><!DOCTYPE svg PUBLIC "-//W3C//DTD SVG 1.1//EN" "http://www.w3.org/Graphics/SVG/1.1/DTD/svg11.dtd"><svg t="1763294145976" class="icon" viewBox="0 0 1035 1024" version="1.1" xmlns="http://www.w3.org/2000/svg" p-id="13598" xmlns:xlink="http://www.w3.org/1999/xlink" width="202.1484375" height="200"><path d="M29.696 679.424a29.696 29.696 0 0 0-29.696 29.696v225.792a29.696 29.696 0 0 0 29.696 29.696h315.392a29.696 29.696 0 1 0 0-58.88H58.88v-167.424h235.52a29.184 29.184 0 0 0 29.696-29.184 29.696 29.696 0 0 0-29.696-29.696z m0-339.456a29.696 29.696 0 0 0-29.696 29.184v226.304a29.696 29.696 0 0 0 29.696 29.696H394.24a29.696 29.696 0 0 0 29.696-29.696 29.184 29.184 0 0 0-29.696-29.184H58.88V398.848h887.808v167.936a29.696 29.696 0 1 0 58.88 0V369.152a29.696 29.696 0 0 0-29.696-29.184zM29.696 0A29.696 29.696 0 0 0 0 29.696V256a29.696 29.696 0 0 0 29.696 29.184h946.176a29.696 29.696 0 0 0 29.696-29.184V29.696a29.696 29.696 0 0 0-29.696-29.696z m916.992 226.304H58.88V58.88h887.808z" fill="#ffffff" p-id="13599"></path><path d="M424.96 894.976a122.368 122.368 0 0 0 66.048 112.64 141.824 141.824 0 0 0 61.44 16.384h350.72a146.432 146.432 0 0 0 59.392-14.848 127.488 127.488 0 0 0 45.056-36.864 139.776 139.776 0 0 0 27.136-68.096 143.36 143.36 0 0 0-51.2-124.928 164.352 164.352 0 0 0-29.184-17.92l-4.096-2.56v-4.608a225.792 225.792 0 0 0-12.288-60.416 163.328 163.328 0 0 0-42.496-69.12 153.6 153.6 0 0 0-89.6-41.984A153.6 153.6 0 0 0 665.6 634.88a215.552 215.552 0 0 0-17.92 24.576l-3.584 5.632h-5.632a95.744 95.744 0 0 0-75.264 10.752 108.032 108.032 0 0 0-46.592 74.752v4.608h-4.096a163.84 163.84 0 0 0-28.16 16.896 143.872 143.872 0 0 0-59.392 122.368z m478.208 67.072h-349.696a90.624 90.624 0 0 1-33.792-8.704 62.464 62.464 0 0 1-32.768-58.88 83.456 83.456 0 0 1 30.72-68.096 90.112 90.112 0 0 1 34.304-17.408 30.72 30.72 0 0 0 24.064-34.816 51.2 51.2 0 0 1 19.456-44.032 33.28 33.28 0 0 1 26.112-5.12 35.84 35.84 0 0 1 12.288 6.656 30.208 30.208 0 0 0 29.184 9.216 31.744 31.744 0 0 0 22.016-22.016 126.976 126.976 0 0 1 26.112-44.544 92.672 92.672 0 0 1 83.968-32.256 93.184 93.184 0 0 1 80.896 67.072 194.048 194.048 0 0 1 9.728 67.584 30.72 30.72 0 0 0 24.064 32.256 81.408 81.408 0 0 1 32.256 16.384 79.36 79.36 0 0 1 29.184 71.68 69.632 69.632 0 0 1-35.84 55.296 82.432 82.432 0 0 1-34.304 9.216z" fill="#ffffff" p-id="13600"></path><path d="M197.632 197.12A54.272 54.272 0 1 0 143.36 142.848a54.784 54.784 0 0 0 54.272 54.272z m0-78.848a24.576 24.576 0 1 1-24.064 24.576 24.064 24.064 0 0 1 24.064-24.576zM197.632 427.008a54.784 54.784 0 1 0 54.784 54.784 54.784 54.784 0 0 0-54.784-54.784z m0 78.848a24.576 24.576 0 1 1 24.576-24.064 24.064 24.064 0 0 1-24.576 24.064zM197.632 774.144a54.272 54.272 0 1 0 54.784 54.272 54.784 54.784 0 0 0-54.784-54.272z m0 78.848a24.576 24.576 0 1 1 24.576-24.576 24.576 24.576 0 0 1-24.576 24.576z" p-id="13601" fill="#ffffff"></path></svg>